STARTFONT 2.1
COMMENT
COMMENT Converted from OpenType font "Q:\font stuff\winfont\Buffet Script.otf" by "otf2bdf 3.0".
COMMENT
FONT -FreeType-Buffet Script-Medium-R-Normal--52-520-72-72-P-383-ISO10646-1
SIZE 52 72 72
FONTBOUNDINGBOX 133 91 -50 -33
STARTPROPERTIES 19
FOUNDRY "FreeType"
FAMILY_NAME "Buffet Script"
WEIGHT_NAME "Medium"
SLANT "R"
SETWIDTH_NAME "Normal"
ADD_STYLE_NAME ""
PIXEL_SIZE 52
POINT_SIZE 520
RESOLUTION_X 72
RESOLUTION_Y 72
SPACING "P"
AVERAGE_WIDTH 383
CHARSET_REGISTRY "ISO10646"
CHARSET_ENCODING "1"
FONT_ASCENT 46
FONT_DESCENT 15
COPYRIGHT "Copyright © Alejandro Paul, 2005. All rights reserved."
_OTF_FONTFILE "Q:\font stuff\winfont\Buffet Script.otf"
_OTF_PSNAME "BuffetScript"
ENDPROPERTIES
CHARS 235
STARTCHAR 0020
ENCODING 32
SWIDTH 250 0
DWIDTH 13 0
BBX 0 0 0 0
BITMAP
ENDCHAR
STARTCHAR 0021
ENCODING 33
SWIDTH 384 0
DWIDTH 20 0
BBX 28 43 5 -1
BITMAP
00000070
000000F0
000000F0
000001E0
000003C0
000003C0
00000780
00000780
00000F00
00000E00
00001E00
00003C00
00003800
00007800
00007000
0000E000
0001E000
0001C000
0003C000
00038000
00070000
00070000
000E0000
001C0000
001C0000
00380000
00300000
00700000
00600000
00C00000
00C00000
01800000
03000000
03000000
00000000
00000000
1C000000
7E000000
7F000000
FF000000
FE000000
FE000000
7C000000
ENDCHAR
STARTCHAR 0022
ENCODING 34
SWIDTH 403 0
DWIDTH 21 0
BBX 17 12 17 26
BITMAP
01E780
03E780
03CF00
078E00
071E00
0E1C00
0E3800
1C7000
38E000
70C000
618000
C30000
ENDCHAR
STARTCHAR 0023
ENCODING 35
SWIDTH 538 0
DWIDTH 28 0
BBX 25 20 5 7
BITMAP
00060800
00061800
000C3800
001C3000
00187000
00386000
1FFFFF80
1FFFFE00
00618000
00C38000
01C30000
7FFFFC00
FFFFF800
030C0000
061C0000
0E180000
0C380000
1C300000
18200000
00200000
ENDCHAR
STARTCHAR 0024
ENCODING 36
SWIDTH 576 0
DWIDTH 30 0
BBX 33 56 2 -7
BITMAP
0000000C00
0000000D80
0000001980
0000001300
0000003600
000003FE00
00001FFE00
0000783F00
0000E00F80
0001C00780
0003800380
0007000380
0007000380
000F000180
000F000380
000F000300
000F800300
000F800600
000FC7FC00
0007C7F800
0007E7C000
0003F00000
0001F00000
0001F80000
0000FC0000
00007E0000
00003E0000
00003F0000
00001F8000
00000F8000
00000FC000
000007E000
01FFC3E000
0701E3E000
1C01E3F000
3801E1F000
7001E1F000
6003E1F000
E007E1F000
C03FC1F000
C01F81F000
C00001E000
C00001E000
C00003E000
C00003C000
E000078000
60000F8000
30001F0000
38003E0000
3F00F80000
63FFE00000
667E000000
CC00000000
CC00000000
1800000000
1000000000
ENDCHAR
STARTCHAR 0025
ENCODING 37
SWIDTH 961 0
DWIDTH 50 0
BBX 43 47 9 -4
BITMAP
000000000800
000000001800
0001FC003000
00060E003000
000C0F006000
001007004000
00200780C000
004007818000
00C007810000
018007830000
030007060000
070007060000
0600070C0000
0E0007080000
1C000E180000
1C000E300000
38000E200000
38001C603F80
78001CC0C3C0
7000188101E0
7000398600E0
F000310C00E0
F000631800E0
F000C63000E0
F000C43000E0
F0018C6000E0
F00318C000E0
F00611C000E0
7808318001C0
7C70638001C0
3FC0630001C0
0000C7000380
000087000380
00018E000300
00030E000700
00021E000600
00061E000E00
000C1C000C00
00081C001800
00181C003000
00301C002000
00301E004000
00601E008000
00C01E030000
00C00F8C0000
018007F00000
010000000000
ENDCHAR
STARTCHAR 0026
ENCODING 38
SWIDTH 596 0
DWIDTH 31 0
BBX 34 42 2 -8
BITMAP
0000003E00
000003FF80
0000070FC0
00001C07C0
00003803C0
0000300380
0000700700
0000E00700
0000E00C00
0001C03800
0001C1E000
0001FF8000
001FFC0000
001F800000
0003800000
0003800000
000F800000
0033807E00
0043803E00
0183801E00
0303801E00
0703801E00
0E03801E00
0C03801C00
1C03801C00
3803C01800
3801C03000
7801C03000
7801C06000
7801E0C000
F800E18000
F800E30000
F800760000
FC00780000
7E00780000
7FFFF80000
3FFF1C0000
0FF80E0000
0000060000
0000030000
0000018000
000000C000
ENDCHAR
STARTCHAR 0027
ENCODING 39
SWIDTH 269 0
DWIDTH 14 0
BBX 11 12 17 26
BITMAP
01E0
03E0
03C0
0780
0700
0E00
0E00
1C00
3800
7000
6000
C000
ENDCHAR
STARTCHAR 0028
ENCODING 40
SWIDTH 500 0
DWIDTH 26 0
BBX 43 63 7 -15
BITMAP
000000007FE0
00000003E1E0
0000000F00C0
000000380000
000000F00000
000001C00000
000007800000
00000F000000
00001C000000
000038000000
000070000000
0000F0000000
0001E0000000
0003C0000000
000780000000
000F00000000
001E00000000
001E00000000
003C00000000
007800000000
007800000000
00F000000000
01E000000000
01E000000000
03C000000000
03C000000000
078000000000
078000000000
0F0000000000
0F0000000000
0E0000000000
1E0000000000
1C0000000000
1C0000000000
3C0000000000
380000000000
380000000000
780000000000
700000000000
700000000000
700000000000
600000000000
E00000000000
E00000000000
E00000000000
E00000000000
E00000000000
C00000000000
C00000000000
C00000000000
C00000000000
E00000000000
E00000000000
600000000000
600000000000
600000000000
600000000000
300000000000
380000000000
3F0000000000
1F0000000000
0F8000000000
070000000000
ENDCHAR
STARTCHAR 0029
ENCODING 41
SWIDTH 500 0
DWIDTH 26 0
BBX 43 63 -18 -15
BITMAP
000000001E00
000000003F00
000000001F00
000000001780
000000000180
000000000180
0000000000C0
0000000000C0
0000000000C0
0000000000C0
0000000000E0
000000000060
000000000060
000000000060
000000000060
000000000060
0000000000E0
0000000000E0
0000000000E0
0000000000E0
0000000000E0
0000000000E0
0000000001C0
0000000001C0
0000000001C0
0000000003C0
000000000380
000000000380
000000000780
000000000780
000000000700
000000000F00
000000000E00
000000001E00
000000001E00
000000003C00
000000003C00
000000007800
000000007800
00000000F000
00000000E000
00000001E000
00000003C000
00000003C000
000000078000
0000000F0000
0000000E0000
0000001E0000
0000003C0000
000000780000
000000F00000
000001E00000
000003C00000
000007800000
00000F000000
00001E000000
000038000000
000070000000
0001E0000000
200780000000
701E00000000
FBF000000000
7F8000000000
ENDCHAR
STARTCHAR 002A
ENCODING 42
SWIDTH 461 0
DWIDTH 24 0
BBX 14 13 16 22
BITMAP
0060
00E0
00C0
0080
6184
F91C
0FFC
0600
1900
7100
E180
C180
0180
ENDCHAR
STARTCHAR 002B
ENCODING 43
SWIDTH 500 0
DWIDTH 26 0
BBX 22 20 5 7
BITMAP
000100
000300
000300
000600
000E00
000C00
001C00
001800
7FFFFC
FFFFFC
006000
00E000
00C000
01C000
018000
030000
030000
060000
060000
040000
ENDCHAR
STARTCHAR 002C
ENCODING 44
SWIDTH 326 0
DWIDTH 17 0
BBX 13 13 0 -6
BITMAP
00F8
00F8
01F8
01F8
01F8
01F0
01E0
01C0
0380
0700
0C00
7800
C000
ENDCHAR
STARTCHAR 002D
ENCODING 45
SWIDTH 403 0
DWIDTH 21 0
BBX 16 2 6 8
BITMAP
FFFF
FFFE
ENDCHAR
STARTCHAR 002E
ENCODING 46
SWIDTH 326 0
DWIDTH 17 0
BBX 8 7 5 -2
BITMAP
1C
7E
7F
FF
FE
FE
7C
ENDCHAR
STARTCHAR 002F
ENCODING 47
SWIDTH 269 0
DWIDTH 14 0
BBX 34 53 0 -8
BITMAP
00000000C0
00000000C0
0000000180
0000000100
0000000300
0000000600
0000000400
0000000C00
0000000800
0000001800
0000003000
0000002000
0000006000
000000C000
0000008000
0000018000
0000030000
0000020000
0000060000
0000040000
00000C0000
0000180000
0000100000
0000300000
0000600000
0000400000
0000C00000
0001800000
0001800000
0003000000
0002000000
0006000000
000C000000
0008000000
0018000000
0030000000
0030000000
0060000000
00C0000000
00C0000000
0180000000
0100000000
0300000000
0600000000
0400000000
0C00000000
1800000000
1800000000
3000000000
6000000000
6000000000
C000000000
8000000000
ENDCHAR
STARTCHAR 0030
ENCODING 48
SWIDTH 634 0
DWIDTH 33 0
BBX 36 46 2 -4
BITMAP
0000003E00
000001FF80
00000787C0
00001C03E0
00003001E0
0000E001F0
0001C000F0
00038000F0
00070000F0
000E0000F0
000C0000F0
001C0000F0
00380000F0
00700000F0
00700000F0
00E00000F0
01E00000F0
01C00000E0
03C00001E0
03800001E0
07800001C0
07000001C0
0F000003C0
0E00000380
1E00000380
1E00000780
1C00000700
3C00000F00
3C00000E00
3C00000E00
7800001C00
7800001800
7800003800
7800007000
7800006000
780000E000
F80001C000
F800038000
7800030000
7800060000
78000C0000
7C00380000
3E00600000
3F01C00000
1FFF000000
0FFC000000
ENDCHAR
STARTCHAR 0031
ENCODING 49
SWIDTH 365 0
DWIDTH 19 0
BBX 29 47 1 -4
BITMAP
00000008
00000018
00000038
00000030
00000070
000000E0
000001E0
000003C0
00000580
00001B80
01002300
01C1C700
01FF0600
00000E00
00000C00
00001C00
00003800
00003800
00007000
00007000
0000E000
0001E000
0001C000
00038000
00038000
00070000
000F0000
000E0000
001E0000
003C0000
003C0000
00780000
00780000
00F00000
01F00000
01E00000
03E00000
07C00000
07800000
0F800000
0F000000
1F000000
3E000000
3E000000
7C000000
FC000000
F8000000
ENDCHAR
STARTCHAR 0032
ENCODING 50
SWIDTH 538 0
DWIDTH 28 0
BBX 40 47 -5 -5
BITMAP
00000007E0
0000003C78
000000E01C
000001800E
000006000E
00000C000F
000018000F
000038000F
000070000F
0000E0000F
0000E0001F
0001C0001E
000380009E
00038000BE
00078001BC
00070001BC
000F000178
000F000378
000F0002F0
000F0006F0
000F000DE0
000F0009E0
000F0013C0
000F8067C0
0007C0C780
0003FF0F00
0000FC0E00
0000001E00
0000003C00
0000003800
0000007000
000000F000
000001E000
000003C000
0000078000
00000F0000
00001E0000
07803C0000
3FF0700000
70FCE00000
603FC00000
E00F800000
600FE00000
7079F00000
3FE0FC0300
06003FDE00
00000FF800
ENDCHAR
STARTCHAR 0033
ENCODING 51
SWIDTH 557 0
DWIDTH 29 0
BBX 36 49 -1 -3
BITMAP
0000000800
0000000800
000001F800
00001F7F00
0000F01FC0
0001E011E0
0003C011E0
00078030F0
000F0020F0
000F0060F0
000F0040F0
000F0080E0
000F8300E0
0007FE01E0
0003F801C0
0000000380
0000000380
0000000700
0000000E00
0001FF1C00
000F07F800
001801F000
003001F000
0030077800
00303C7800
003FF03C00
0000003C00
0000003C00
0000003C00
0000007800
0000007800
0000007800
000000F800
000000F000
000001F000
000001E000
000003C000
000003C000
0000078000
00000F0000
00001E0000
00003C0000
0000780000
0001F00000
0003C00000
000F800000
807E000000
FFF0000000
7F00000000
ENDCHAR
STARTCHAR 0034
ENCODING 52
SWIDTH 500 0
DWIDTH 26 0
BBX 35 47 2 -4
BITMAP
0000000060
00000001E0
00000007E0
0000001CC0
00000031C0
000000C180
0000038380
0000060300
00001C0700
0000380E00
0000F00E00
0001C01C00
0003801800
000F003800
001E003000
003C007000
007800E000
00F000E000
01E001C000
03C001C000
07C0038000
0F80078000
1F00070000
3E000F0000
7E1FFFC000
FFFFFFE000
F8003C0000
0000380000
0000780000
0000F00000
0000F00000
0001E00000
0001E00000
0003C00000
0007C00000
0007800000
000F800000
001F000000
001F000000
003E000000
003E000000
007C000000
00F8000000
00F8000000
01F0000000
03F0000000
03E0000000
ENDCHAR
STARTCHAR 0035
ENCODING 53
SWIDTH 538 0
DWIDTH 28 0
BBX 36 47 -1 -4
BITMAP
0000100010
00003FFFF0
00003FFFE0
000060FFC0
0000600000
0000E00000
0000C00000
0000C00000
0001C00000
0001800000
0003800000
0003800000
0003000000
0007000000
0007000000
000E000000
000E000000
001E000000
001FFF8000
003E03E000
002001F000
000000F800
0000007800
0000007800
0000007800
0000007800
0000007800
0000007800
0000007800
000000F800
000000F800
000000F000
000001F000
000001E000
000003E000
000007C000
00000F8000
00000F0000
00001E0000
00003C0000
0000780000
0001F00000
0003E00000
000F800000
807E000000
FFF0000000
7F00000000
ENDCHAR
STARTCHAR 0036
ENCODING 54
SWIDTH 538 0
DWIDTH 28 0
BBX 35 46 1 -3
BITMAP
0000000FC0
0000003FE0
000000E020
0000038000
0000070000
00001C0000
0000380000
0000700000
0000E00000
0001C00000
0003800000
0007000000
000E000000
001E000000
003C000000
0038020000
00783FE000
00F060F800
00E1807800
01E3007C00
03C6003C00
03CC003C00
0798003C00
0FB0003C00
0F30003C00
1F60003800
1EE0007800
1EC0007800
3DC0007000
3DC000F000
7D8000E000
7B8000E000
798001C000
F80001C000
F000038000
F000030000
F000060000
F0000E0000
F0001C0000
F000180000
F000300000
F000600000
7001800000
3803000000
1E1C000000
07E0000000
ENDCHAR
STARTCHAR 0037
ENCODING 55
SWIDTH 423 0
DWIDTH 22 0
BBX 32 46 3 -2
BITMAP
03000003
07000006
0380001C
03C0007C
01F807D8
007FFE10
00038020
00000060
000000C0
00000180
00000180
00000300
00000600
00000E00
00000C00
00001800
00003800
00007000
00006000
0000E000
0001C000
00038000
00038000
00070000
000E0000
001E0000
001C0000
003C0000
00780000
00700000
00F00000
01E00000
01E00000
03C00000
07C00000
07800000
0F800000
1F000000
1F000000
3E000000
3E000000
7E000000
7C000000
7C000000
FC000000
70000000
ENDCHAR
STARTCHAR 0038
ENCODING 56
SWIDTH 500 0
DWIDTH 26 0
BBX 34 47 -2 -4
BITMAP
000000FC00
000007FF00
00001C0F80
00003003C0
00007001C0
0000E001C0
0001E000C0
0001E000C0
0001E000C0
0001E000C0
0001E00180
0001F00180
0001F00300
0001F9FE00
0000F9FC00
0000FCE000
00007C0000
00007E0000
00003F0000
00001F0000
00007F8000
0000CFC000
000307C000
000607E000
001803E000
003003F000
006001F000
00C001F000
018000F800
030000F800
060000F800
0C00007800
1800007800
3800007800
3000007000
700000F000
700000F000
E00000E000
E00001C000
F00001C000
F000038000
F800070000
7C001C0000
7F00780000
3FFFE00000
0FFF000000
0040000000
ENDCHAR
STARTCHAR 0039
ENCODING 57
SWIDTH 538 0
DWIDTH 28 0
BBX 35 46 0 -3
BITMAP
000000FC00
0000078F00
00000C03C0
00003001C0
00006001E0
0000C001E0
00018001E0
00030001E0
00060001E0
000C0001E0
001C0001E0
00380001E0
00380001E0
0070001BE0
00F0001BC0
00E0003BC0
01E00037C0
01C0003780
01C0006780
03C0006F00
03C000CF00
03C000DE00
0780019E00
0780033C00
0780023C00
07C0067800
03C0087000
03C030F000
01E0E1E000
00FF81C000
001C03C000
0000078000
0000070000
00000E0000
00001C0000
0000380000
0000780000
0000E00000
0001C00000
0003800000
0007000000
000E000000
0038000000
80F0000000
FFC0000000
7E00000000
ENDCHAR
STARTCHAR 003A
ENCODING 58
SWIDTH 326 0
DWIDTH 17 0
BBX 13 20 5 -1
BITMAP
00F0
01F8
03F8
03F8
03F8
03F0
01E0
0000
0000
0000
0000
0000
0000
1C00
7E00
7F00
FF00
FE00
FE00
7C00
ENDCHAR
STARTCHAR 003B
ENCODING 59
SWIDTH 346 0
DWIDTH 18 0
BBX 19 26 0 -6
BITMAP
0003C0
000FE0
000FE0
001FE0
001FC0
001FC0
000F00
000000
000000
000000
000000
000000
000000
00F800
00F800
01F800
01F800
01F800
01F000
01E000
01C000
038000
070000
0C0000
780000
C00000
ENDCHAR
STARTCHAR 003C
ENCODING 60
SWIDTH 423 0
DWIDTH 22 0
BBX 17 18 6 6
BITMAP
000780
001E00
007800
01E000
078000
0F0000
3C0000
700000
E00000
700000
700000
700000
380000
380000
1C0000
1C0000
0E0000
070000
ENDCHAR
STARTCHAR 003D
ENCODING 61
SWIDTH 538 0
DWIDTH 28 0
BBX 25 7 5 14
BITMAP
1FFFFF80
1FFFFE00
00000000
00000000
00000000
7FFFFC00
FFFFF800
ENDCHAR
STARTCHAR 003E
ENCODING 62
SWIDTH 365 0
DWIDTH 19 0
BBX 17 18 2 7
BITMAP
003800
001C00
000E00
000E00
000700
000700
000380
000380
000380
000380
000700
001E00
007800
01E000
03C000
0F0000
3C0000
F00000
ENDCHAR
STARTCHAR 003F
ENCODING 63
SWIDTH 346 0
DWIDTH 18 0
BBX 31 44 5 -2
BITMAP
00000600
00007FE0
0001E078
0007803C
000F003C
001E003E
001C003E
003C003E
003C003E
003C003E
003E003C
001F007C
00000078
000000F8
000000F0
000001E0
000003C0
00000700
00000E00
00001C00
00003000
00006000
00018000
00030000
00060000
001C0000
00300000
00700000
00E00000
01C00000
03800000
07800000
07800000
0F000000
06000000
00000000
00000000
1C000000
7E000000
7F000000
FF000000
FE000000
FE000000
7C000000
ENDCHAR
STARTCHAR 0040
ENCODING 64
SWIDTH 692 0
DWIDTH 36 0
BBX 38 26 1 -4
BITMAP
000001FFC0
00001F03F0
00007000F8
0001C07C78
000703FC3C
000C0E083C
0030380038
0060E03C78
00C1C07878
018380F070
030701E0F0
060E03C0E0
0C1C0781C0
1C380F0180
38781E0380
38F03E0700
70F07C0E00
71E19C1C00
E1FF3C3000
E1FE3C6000
E1FC3CC000
E1F03F0000
F0001C0000
F820000000
FFC0000000
3E00000000
ENDCHAR
STARTCHAR 0041
ENCODING 65
SWIDTH 346 0
DWIDTH 18 0
BBX 62 65 -25 -18
BITMAP
0000000000000600
0000000000000F00
0000000000001B00
0000000000003300
0000000000006300
000000000000C300
0000000000018600
0000000000030600
0000000000030600
0000000000060C00
00000000000C0C00
0000000000181C00
0000000000181800
0000000000301800
0000000000603804
0000000000603004
0000000000C07004
0000000001806008
000000000100E008
000000000300E018
000000000601C010
000000000601C020
000000000C038060
0000000018038040
0000000018078080
0000000030070300
00000000780F0600
000000007C0E1800
00000000FF9EF000
00000000A3FF8000
00000001A03C0000
00000003203C0000
0000000320780000
0000000620780000
0000000E20F80000
0000000C20F00000
0000001821F00000
0000001821E00000
0000003023E00000
0000007023C00000
0000006027C00000
000000C027C00000
000001C04F800000
000003804F800000
000003004F000000
000007005F000000
00000E007E000000
00000C007E000000
00001C007C000000
000038007C000000
0000700078000000
0000E00030000000
0001E00000000000
0003C00000000000
0007800000000000
000F000000000000
001E000000000000
003C000000000000
0078000000000000
01F0000000000000
0FE0000000000000
FFC0000000000000
FF80000000000000
7E00000000000000
3800000000000000
ENDCHAR
STARTCHAR 0042
ENCODING 66
SWIDTH 480 0
DWIDTH 25 0
BBX 52 57 -13 -12
BITMAP
00000000000300
00000000001FC0
00000000007FE0
0000000000FBE0
0000000001C1F0
000000000700F0
000000000E00E0
000000001800E0
000000003000E0
000000006000E0
00000000C000E0
000000018001C0
000000030001C0
00000006000180
0000000C000380
0000000C000300
00000018000700
00000030000600
00000060000E00
000000E0000C00
000000C0001800
00000187C03800
0000033FF03000
000007E0F86000
000007803CC000
00000F001D8000
00001E001F0000
00003E000E0000
00003C000E0000
00007C003E0000
0000EC00EE0000
0001EE039C0000
0001C7FE1C0000
0003C1C01C0000
00078000180000
00078000380000
000F0000380000
001E0000700000
001E0000700000
003C0000E02000
007C0000E04000
00780001C08000
00F80001810000
01F00003020000
01F000070C0000
03E0000E180000
07E0001C600000
07C0FFFFC00000
0FC3FFFE000000
0F8600C0000000
1F840380000000
3F060C00000000
3F03F000000000
7E000000000000
7E000000000000
FC000000000000
78000000000000
ENDCHAR
STARTCHAR 0043
ENCODING 67
SWIDTH 442 0
DWIDTH 23 0
BBX 46 51 0 -6
BITMAP
0000000007F0
000000003FF8
00000000FFFC
00000003807C
0000000E003C
00000018003C
00000070003C
000000E00038
000001800038
000007000070
00000E000070
00001C0000E0
0000380001C0
000070000380
0000E0000700
0001C0000E00
0003C0001C00
000780007000
00070001C000
000E00078000
001E001C0000
303C00F00000
38780F800000
3F7FF8000000
07FE00000000
01E000000000
01E000000000
03C000000000
07C000000000
078000000000
0F8000000000
0F0000000000
1F0000000000
1E0000000000
3E0000000000
3E0000000000
7C0000000000
7C0000000000
7C0000000000
FC0000100000
F80000200000
F80000600000
F80000C00000
F80001800000
FC0003000000
FC0006000000
FC0018000000
7E0030000000
7F01C0000000
3FFF00000000
0FF800000000
ENDCHAR
STARTCHAR 0044
ENCODING 68
SWIDTH 634 0
DWIDTH 33 0
BBX 53 48 -7 -4
BITMAP
00000003001FC0
00000003007FE0
0000000601E7F0
0000000E0381F0
0000001C0700F0
000000380C00F0
000000581800F8
000001B03000F8
000006306000F0
00001C60C000F0
C000F0E18000F0
FC1FC0C30000F0
7FFE01C20001F0
020001860001F0
0000030C0001E0
000007180003E0
000006300003E0
00000E200003C0
00000C600007C0
00001CC00007C0
00003980000F80
00003900000F80
00007300001F00
0000F600001F00
0000E400003E00
0001CC00003E00
0001D800007C00
0003B00000F800
0007A00000F800
0007600001F000
000FC00003E000
001F800003C000
001F800007C000
003F00000F8000
007E00001F0000
007E00003E0000
00FC00007C0000
01F80000F80000
01F80001F00000
03F00003E00000
07F0000F800000
07E0001F000000
0FC0007C000000
1FC001F0000000
1F800FC0000000
3F0FFF00000000
7F0FF000000000
3C000000000000
ENDCHAR
STARTCHAR 0045
ENCODING 69
SWIDTH 500 0
DWIDTH 26 0
BBX 52 69 -3 -27
BITMAP
0000000000C000
000000003FFF00
00000001FFFFE0
00000007000FF0
0000001C0003F0
000000700001F0
000000C00000E0
00000180000040
00000300000000
00000600000000
00000C00000000
00001800000000
00003000000000
00006000000000
00006000000000
0000C000000000
0000C000000000
00008000000000
00018000000000
000187FF000000
0001BE07800000
0001F007800000
0003C00F000000
0007E03E000000
001E7FF8000000
00383FE0000000
00700000000000
00E00000000000
01C0007C000000
03C001CE000000
0780020E000000
0F000C0E000000
0F00180C000000
1E00301C000000
3E00601C000000
3C004038000000
7C008078000000
7C0100F0000000
780301E0000000
F80203C0000000
F8040780000000
FC0C0F00000000
FC081E00000000
7E107800000000
7F33F000000000
3FFF8000000000
0FFC0000000000
00400000000000
00C00000000000
00800000000000
01800000000000
01800000000000
03000000000000
03000000000000
07000000000000
06000000000000
0E000000000000
0E000000000000
0E000000000000
1E000000000000
1E000000000000
1C000000000000
1E000000000000
3E000000000000
3E000000000000
3E000000000000
3F000000000000
1F000000000000
1F000000000000
ENDCHAR
STARTCHAR 0046
ENCODING 70
SWIDTH 423 0
DWIDTH 22 0
BBX 67 48 -3 -4
BITMAP
0000000000003FFFE0
000000000003FFFFC0
00000000000FFFFF80
00000000003FFFFF00
0000000000FC000000
0000000001E0000000
000000000780000000
000000000E00000000
000000001C00000000
000000207000000000
60000060E000000000
700001C18000000000
780007C30000000000
3F0039860000000000
0FFFC30C0000000000
000003180000000000
000006300000000000
00000E600000000000
00000CC00000000000
000018800000000000
000039000000000000
000073000000000000
000066000000000000
0000EC000000000000
0001D8000000000000
000190000000000000
0003BFFFC000000000
07FFFFFFC000000000
07CEC3FF0000000000
000F80000000000000
001F80000000000000
003F00000000000000
003E00000000000000
007C00000000000000
00FC00000000000000
01F800000000000000
01F000000000000000
03F000000000000000
07E000000000000000
07C000000000000000
0FC000000000000000
1F8000000000000000
1F0000000000000000
3F0000000000000000
7E0000000000000000
FC0000000000000000
FC0000000000000000
F80000000000000000
ENDCHAR
STARTCHAR 0047
ENCODING 71
SWIDTH 557 0
DWIDTH 29 0
BBX 51 62 0 -19
BITMAP
0000000007FFC0
000000007F7FE0
00000003C007E0
0000000E0003E0
000000380001C0
000000F0000080
000001C0000000
00000780000000
00000E00000000
00003C00000000
00007800000000
0000F000000000
0001E000000000
0007C000000000
000F8000000000
001F0000000000
001E0000000000
003C0000000000
00780000060000
00F800000E0000
01F000001C0000
03E00000380000
03E00000380000
07C00000700000
0F800000E00000
0F800001C00000
1F000003C00000
1F000007800000
3E00000F000000
3E00001F000000
7C00003E000000
7C00007C000000
7C0000F8000000
F80000F8000000
F80003F0000000
F80007E0000000
F8000FC0000000
F8001FC0000000
F8003F80000000
F800EF00000000
F801DF00000000
FC073E00000000
7FFC7C00000000
3FF0F800000000
0380F800000000
0001F000000000
0003E000000000
0007C000000000
000FC000000000
001F8000000000
001F0000000000
003F0000000000
007E0000000000
00FC0000000000
01F80000000000
03F80000000000
07F00000000000
07E00000000000
0FE00000000000
1FC00000000000
1F800000000000
0F000000000000
ENDCHAR
STARTCHAR 0048
ENCODING 72
SWIDTH 461 0
DWIDTH 24 0
BBX 67 52 -7 -5
BITMAP
000000000000007F00
00000000000001FFC0
0000000000000383E0
0000000000000E00E0
0000000000001800E0
000000000000300060
000000000000600060
000000000000C00060
0000000000018000E0
0000000000030000E0
0000000000060000C0
00000000000C0001C0
000000010018000180
000000020038000300
000000060070000700
0000001C0060000E00
0000003800C0001C00
000000F001C0003800
000003F00380007000
00000E60030000C000
100030C00700038000
1C03C1C00E000E0000
1FFC03801C003C0000
078003001C00F00000
00000700380F800000
000F0E0070FE000000
0007FC00FFF0000000
0001FFFFFF00000000
00003FFFC000000000
00007003C000000000
0000E0038000000000
0001E0078000000000
0001C00F0000000000
0003800E0000000000
0007801E0000000000
000F003C0000000000
001E003C0000000000
003C00780000000000
007C00F00000000000
007800F00000000000
00F001E00000000000
01F003E00000000000
03E007C00000000000
07C007C00000000000
0F800F800000000000
1F801F800000000000
3F001F000000000000
7E003E000000000000
7E007E000000000000
FC007C000000000000
F800FC000000000000
6000F8000000000000
ENDCHAR
STARTCHAR 0049
ENCODING 73
SWIDTH 461 0
DWIDTH 24 0
BBX 34 49 0 -7
BITMAP
000003F000
00000E1E00
0000300700
0000C00780
0001800380
00020003C0
000C0003C0
00180003C0
00100003C0
00300003C0
00600003C0
00C00003C0
01800003C0
01800003C0
03000003C0
07000007C0
0600000780
0E00000780
0C00000F80
1C00000F00
1800000F00
3800001F00
3000001E00
7000019E00
700001BC00
700001BC00
6000017800
E000017800
E00003F000
E00002E000
E00007E000
E00005C000
E0000BC000
E000178000
E000270000
F0006E0000
70009E0000
78031C0000
3C06380000
0FF8700000
0000E00000
0001C00000
0003800000
0007000000
000E000000
001C000000
4070000000
7FC0000000
3F00000000
ENDCHAR
STARTCHAR 004A
ENCODING 74
SWIDTH 403 0
DWIDTH 21 0
BBX 47 66 -15 -23
BITMAP
00000000003E
0000000000FE
0000000003FE
00000000070E
000000000C0E
00000000180E
00000000300C
00000000400C
00000000800C
00000001000C
000000020018
000000040018
0000000C0018
000000180030
000000300030
000000600070
000000600060
000000C000E0
0000018000C0
0000018001C0
0000030001C0
000007000380
000006000380
00000E000770
00001E0007F0
00001C000FE0
00003C001FE0
00003C003F00
00003C00FC00
00007C01F800
00007C03F800
00007C0FF000
00007C1EF000
00000039E000
00000071E000
000001E3C000
000003878000
000007078000
00000E0F0000
00001C1F0000
0000301E0000
0000603C0000
0000C07C0000
000180780000
000300F00000
000601F00000
000C03E00000
001803C00000
003007800000
00600F800000
00C01F000000
01801E000000
01003C000000
02007C000000
0600F8000000
0C01F0000000
0803E0000000
1807C0000000
100F80000000
301F00000000
203E00000000
607C00000000
60F000000000
41E000000000
E78000000000
7E0000000000
ENDCHAR
STARTCHAR 004B
ENCODING 75
SWIDTH 480 0
DWIDTH 25 0
BBX 87 73 -7 -15
BITMAP
0000000000000000000600
000000000000000003FFF8
00000000000000003E007E
0000000000000000F0003E
0000000000000003C0003C
000000000000000F000018
000000000000003E000010
00000000000000F8000000
00000000000001F0000000
00000000000003C0000000
0000000000000F80000000
0000000000001F00000000
0000000000003E00000000
0000000000007800000000
000000000000F000000000
000000018001E000000000
000000038003C000000000
0000000300078000000000
00000006000F0000000000
0000000E001C0000000000
0000001C00380000000000
0000003C00700000000000
0000005800E00000000000
000000B801C00000000000
0000033003800000000000
00000C7007000000000000
000018E00E000000000000
4000E0E01C000000000000
E00781C030000000000000
FFFE01C060000000000000
3FF00380C0000000000000
00001F0180000000000000
00007FC300000000000000
00018FE600000000000000
00030EF800000000000000
00061C7000000000000000
00043C7000000000000000
000C39F000000000000000
000E7F3800000000000000
0007FC3800000000000000
0001E03800000000000000
0001E03800000000000000
0001C03800000000000000
0003C03800000000000000
0007803800000000000000
0007803C00000000000000
000F003C00000000000000
001F003C00000000000000
001E003C00000000000000
003E003C00000000000000
007C003C00000000000000
007C003C00000000000000
00F8003C00000000000000
01F0003C00000000000000
01F0003C00000000000000
03E0003C00000000000000
07E0003E00000000000000
07C0003E00000000000000
0FC0001E00000000000000
1F80001E00000000000000
3F80001E00000000000000
3F00001E00000000000000
1C00001F00000000000000
0000001F00000000000000
0000001F00000000000000
0000000F80000000000000
0000000F80000000000000
0000000FC0000000000000
00000007E0000000000000
00000003F0000000000000
00000001FFE00000000000
00000000FF800000000000
0000000018000000000000
ENDCHAR
STARTCHAR 004C
ENCODING 76
SWIDTH 500 0
DWIDTH 26 0
BBX 64 54 -20 -7
BITMAP
0000000000000FF8
000000000000303C
000000000000C01E
000000000001800E
0000000000070006
00000000000E0006
00000000001C0007
0000000000180007
0000000000380007
0000000000700006
0000000000E00006
0000000000E00006
0000000001C00006
0000000003C00006
000000000380000C
000000000780000C
000000000700000C
000000000F000018
000000000E000018
000000001E000010
000000003C000030
000000003C000020
0000000078000060
00000000780000C0
00000000F0000080
00000000F0000180
00000001E0000300
00000001E0000200
00000003C0000400
00000003C0000800
0000000780001800
0000000780003000
0000000F00004000
0000000F00018000
0000001E00070000
0000001E0E3C0000
0000003C0FF80000
000000780FC00000
0000007800000000
000000F000000000
000001F000000000
000001E000000000
000003C000000000
0000078000000000
00000F8000100000
0FFC1F0000300000
3FFFFE0000E00000
E00FFFFC1FE00000
C000FFFFFFC00000
8001FFFFFF000000
C007E07FFC000000
787F800000000000
3FFE000000000000
0FF0000000000000
ENDCHAR
STARTCHAR 004D
ENCODING 77
SWIDTH 769 0
DWIDTH 40 0
BBX 72 65 -19 -22
BITMAP
000000000004000000
00000000000C01C000
00000000001807E00F
0000000000380FC03F
0000000000701FC07F
0000000000E03380FE
0000000001E063839E
0000000003C0C7061C
000000000D81870C3C
000000001B830E1838
0000000023061E1078
00000000C70C1C2070
000000018E18384070
000000061C107880E0
000000181C207180E0
000000603860F301C0
0000018078C0E601C0
00000E007181CC03C0
40007800E103C80380
E003C001E203980780
FFFE0001C607B00700
3FE000038C0F600F00
00000007881EC00E00
0000000F101EC01E00
0000000F303D801C00
0000001E607F003C00
0000003C407E003800
0000007C80FE007800
0000007901FC007800
000000FB03F800F000
000001F603F000F000
000001E407F001E000
000003E80FE003E000
000007D00FC003C000
00000FB01FC003C000
00000FE03F8007C000
00001FC07F00078000
00003F807E000F8000
00007F00FE000F0000
00007F01FC001F0000
0000FE03F8001F0000
0001FC03F0003E0000
0003F807F0003E0000
0003F00FE0007E0000
0007E01FC0007C0000
000FC01F80007C0000
000F803F0000FC0000
000F001E0000F80000
000000000000F80000
000000000001F80000
000000000001F00000
000000000001F00000
000000000003F00000
000000000003F00060
000000000003F00060
000000000003F000C0
000000000003E000C0
000000000003E001C0
000000000003E00180
000000000003F00300
000000000003F00600
000000000001F00C00
000000000001F83800
000000000000FFE000
0000000000000C0000
ENDCHAR
STARTCHAR 004E
ENCODING 78
SWIDTH 538 0
DWIDTH 28 0
BBX 52 62 -9 -18
BITMAP
00000000040030
000000000600F0
000000000C03F0
000000001807E0
00000000180FC0
00000000301FC0
00000000603780
00000000E06780
00000001C08700
00000003818F00
00000007830E00
00000007061E00
0000000F0C1C00
0000003E083C00
0000006C103800
000000DC207800
000001B8407000
00000338C0F000
00000E7180E000
000018E301E000
000071E203C000
C001C1C403C000
F00F0388078000
FFFC0798078000
1FC00F300F0000
00000F600F0000
00001E401E0000
00003C801E0000
00003D003C0000
00007B003C0000
0000FE007C0000
0001F400780000
0001E800F80000
0003F000F00000
0007F001F00000
000FE001E00000
000FC003E00000
001F8003E00000
003F0003C00000
007F0007C00000
007E0007C00000
00FC000F800000
01F8000F800000
03F8000F800000
03F0001F000000
07E0001F000000
07C0001F000000
0780003F000000
0000003E000000
0000003E000000
0000003E000300
0000007E000300
0000007E000600
0000007E000600
0000007E000E00
0000007E000C00
0000003E001800
0000003E003000
0000003F006000
0000001F80C000
0000000FFF8000
00000003FC0000
ENDCHAR
STARTCHAR 004F
ENCODING 79
SWIDTH 557 0
DWIDTH 29 0
BBX 44 53 -1 -6
BITMAP
000000000080
000000003FF0
00000001FFF0
00000007E1E0
0000001F00E0
0000007C0080
000000F00F00
000003E03F00
000007806380
00000F00C380
00001E018380
00003C030380
000078030380
0000F0060380
0001E0040380
0003C00C0700
0007C0080700
000F80180700
000F00180F00
001E00100E00
003E00301E00
003C00301E00
007800201C00
00F800603C00
00F000603800
01E000607800
03E000607800
03C00040F000
07C00040F000
07800041E000
0F800043C000
0F000043C000
1F0000678000
1E0000678000
1E00006F0000
3C00007E0000
3C00003E0000
3C00003C0000
780000780000
780000FC0000
780000F70000
780001E10000
700003C00000
700007800000
F0000F000000
70001E000000
70003C000000
700078000000
7000E0000000
3803C0000000
3C0700000000
1FFC00000000
03C000000000
ENDCHAR
STARTCHAR 0050
ENCODING 80
SWIDTH 442 0
DWIDTH 23 0
BBX 51 54 -10 -6
BITMAP
00000000000780
00000000001FC0
00000000003FE0
0000000000E3E0
000000000181E0
00000000C301E0
000000018201E0
000000018601E0
000000030C03E0
000000071803E0
0000000E3003C0
0000003E2003C0
0000006C6007C0
00000098C00780
00000319800780
00000C31800F80
C0007033000F00
E007C066001F00
FFFE00E4001E00
3FE000CC003E00
000001D8003C00
00000398007C00
00000330007800
0000072000F800
0000066000F000
00000EC001E000
00001C8001E000
00001D8003C000
00003B00038000
00003A00078000
000076000F0000
0000FC000E0000
0000EC001E0000
0001F8003C0000
0003D000780000
0003B000700000
0007E000E00000
000FC001C00000
000FC003800000
001F8007000000
001F800E000000
003F001C000000
007E0038000000
007E00F0000000
00FC01C0000000
01FB0F00000000
01FBFC00000000
03F04000000000
07F00000000000
07E00000000000
0FC00000000000
1FC00000000000
1F800000000000
1F000000000000
ENDCHAR
STARTCHAR 0051
ENCODING 81
SWIDTH 442 0
DWIDTH 23 0
BBX 57 66 -22 -18
BITMAP
0000000000007C00
000000000001CE00
0000000000030700
0000000000060700
00000000000C0700
0000000000380700
0000000000300700
0000000000700700
0000000000E00700
0000000001C00700
0000000003800700
0000000007800700
0000000007000F00
000000000E000E00
000000001E000E00
000000001C001E00
0000000038001E00
0000000078001C00
0000000070003C00
00000000F0003C00
00000001E0003800
00000001E0007800
00000003C0007800
00000003C000F000
000000078000F000
000000070001E000
0000000F0001E000
0000000F0003C000
0000001E0003C000
0000001E0007C000
0000003C00078000
0000003C000F0000
00000078000F0000
00000078001E0000
00000070001E0000
000000F0003C0000
000000F0007C0000
000000E000780000
000001E000F00000
000001E001F00000
000001C001E00000
000001C003C00000
000003C007800000
000003C00F800000
000003801F000000
000003801E000000
000003823C000000
0FFC018278000000
3FFF81C4F0000000
600FF0F9E0000000
4000FC03C0000000
C0003F0780000000
C0000FDE00000000
C00001FC00000000
E00000FC00000000
700001FF00000000
3800078FC0000000
1F003E03F0000000
0FFFF800FC000000
03FF80003F000000
000000000FC00000
0000000003F80000
0000000000FE0000
00000000003FC180
00000000000FFF00
000000000000FC00
ENDCHAR
STARTCHAR 0052
ENCODING 82
SWIDTH 538 0
DWIDTH 28 0
BBX 50 63 -5 -18
BITMAP
0000000001F800
000000000FFE00
400000041C7E00
C000000C301F00
E0000038E01F00
F80000F9C00F00
7F000F31800F00
0FFFF023000F00
00000066000F00
000000CC001F00
000000C8001E00
00000198001E00
000003B0001E00
07F00320003C00
08780760003C00
101E0640007800
100F0EC000F800
10071D8000F000
1807990001E000
1803FB0003C000
0C01F200078000
0C01F6000F0000
0600F4001E0000
0300F8003C0000
0181F800F00000
00E3FC03E00000
007BBC0F800000
001FBFFC000000
000FFFE0000000
000FDF00000000
001E8F00000000
001F8F80000000
003D0780000000
007E07C0000000
007E03C0000000
00FC03E0000000
00FC01E0000000
01F801F0000000
03F000F0000000
03F000F8000000
07E000F8000000
07E0007C000000
0FC0007C000000
1F80003E000000
1F80003E000000
3F00001F000000
3F00001F000000
7E00000F800000
7C00000F800000
78000007C00000
00000007C00000
00000003E00000
00000001F00000
00000001F80000
00000000F80000
000000007C0000
000000007E0000
000000003F0000
000000001F8000
000000000FE000
0000000007F800
0000000001FFC0
00000000007F00
ENDCHAR
STARTCHAR 0053
ENCODING 83
SWIDTH 653 0
DWIDTH 34 0
BBX 51 54 -3 -6
BITMAP
0000000003FF00
000000000FFF80
000000003807C0
000000007003C0
00000000E001E0
00000001C000E0
00000003C000E0
00000003C000E0
000000038000C0
00000007C000C0
00000007C001C0
00000007C00180
00000007C18300
00000003C1FE00
00000003C1F800
00000003E00000
00000003E00000
00000003E00000
00000003E00000
00000001E00000
00000001F00000
00000001F00000
00000001F00000
00000001F00000
00003FE1F00000
0001FFF8F80000
0007FFF8F80000
001F007CF80000
007C001CF80000
00F0001CF80000
01C0000CF80000
0380000CF80000
0700000CF80000
0E00000CF80000
0C000018F80000
18000018F80000
18080030F80000
30180020F80000
30180060F00000
601800C0F00000
601C0101F00000
401E0E01E00000
400FF803E00000
C0018003C00000
C0000007800000
40000007800000
4000000F000000
6000001E000000
60000078000000
300000F0000000
1C0003C0000000
0F001F00000000
07FFFC00000000
00FFC000000000
ENDCHAR
STARTCHAR 0054
ENCODING 84
SWIDTH 211 0
DWIDTH 11 0
BBX 71 56 -15 -11
BITMAP
000000000000007FF0
00000000000003C07C
0003FFFE00000E001E
003E000FF80018000E
00E000003FC060003E
0380000000FFC001FC
0F0000000007FFFFF0
1E00000000063FFF80
3C000000000C000000
780000000018000000
780000000030000000
F80000000060000000
F800000100C0000000
F80000018180000000
F80000038300000000
FC0000070600000000
7E00000E0C00000000
3F00003C1800000000
1FC000F03800000000
07F80FC07000000000
01FFFC006000000000
00000000C000000000
000000018000000000
000000038000000000
000000070000000000
0000000E0000000000
0000000C0000000000
0000001C0000000000
000000380000000000
000000700000000000
000000E00000000000
000000E00000000000
000001C00000000000
000003800000000000
000007800000000000
00000F000000000000
00000E000000000000
00001C000000000000
00003C000000000000
000078000000000000
0000F0000000000000
0000F0000000000000
0001E0000000000000
0003C0000000000000
0007C0000000000000
000F80000000000000
001F00000000000000
003F00000000000000
007E00000000000000
007C00000000000000
00FC00000000000000
01F800000000000000
07F000000000000000
0FE000000000000000
0FE000000000000000
07C000000000000000
ENDCHAR
STARTCHAR 0055
ENCODING 85
SWIDTH 500 0
DWIDTH 26 0
BBX 45 49 -2 -4
BITMAP
0000000C0000
0000001C0000
000000380000
000000700000
000000E00078
000003E00078
010007C000F0
01C03B8001E0
01FFF70003C0
007F87000780
00000E000780
00001C000F00
000038001E00
000078001E00
000070003C00
0000E0007800
0001E0007000
0003C000F000
00038001E000
00078001E000
000F0003C000
000E00078000
001E00078000
003C000F0000
0038001E0000
0078001E0000
00F0003C0000
00E0007C0000
01E000780000
03C000F00000
03C000F00000
078001E00000
078003E00000
0F0003C00000
0F0007C00000
1E000F800000
1E000F800000
3E001F000000
3E003F000000
7C007E008000
7C00DE010000
7C01BC030000
FE073C060000
FF1C3C0C0000
FFF83C180000
FFF038200000
7FC03CC00000
7F003F800000
08003E000000
ENDCHAR
STARTCHAR 0056
ENCODING 86
SWIDTH 442 0
DWIDTH 23 0
BBX 50 50 -10 -4
BITMAP
00000000000380
00000000000FC0
00000007C018C0
0000001FC030C0
0000003FC060C0
000000F7C0C0C0
000001C3818080
00000307830180
00000607020180
00000C07060100
0000180E0C0300
0000300E080200
0000601C180600
0000C03C300400
00018038300C00
00030078600800
00060070601800
000C00E0401000
001801E0C03000
003001C0806000
007003C1806000
0060078180C000
00C00701018000
01800F03018000
03001E03030000
07001E02060000
06003C02060000
0C007C060C0000
18007806180000
1800F006180000
3001F006300000
6001E006600000
6003E006C00000
C003C003C00000
8007C003800000
000F8003000000
000F8007800000
001F000CE00000
001F0018300000
003E0030000000
003E0060000000
007C00C0000000
007C0180000000
00F80700000000
00F80E00000000
00F83800000000
00FDF000000000
00FFC000000000
00FF0000000000
007C0000000000
ENDCHAR
STARTCHAR 0057
ENCODING 87
SWIDTH 596 0
DWIDTH 31 0
BBX 86 60 -3 -5
BITMAP
000000000000000000FFF0
00000000000000000701FC
00000000000000001C007C
000000000000000070003C
0000000000000001C00038
0000000000000003800010
0000000000000007000000
000000000000000E000000
000000000000003C000000
0000000000000078000000
0000000000E000F0000000
0000000C01E001E0000000
0000001C03E003C0000000
0000003807C00380000000
000000780FC00700000000
000000F01FC00E00000000
000003E01B801C00000000
018007C033803C00000000
01E03FC063007800000000
01FFF380C7007000000000
003F0700C600E000000000
00000F018E01E000000000
00001E038C03C000000000
00003C031C038000000000
00003C0638070000000000
00007806300F0000000000
0000F80C700E0000000000
0000F01CE01C0000000000
0001E018C0380000000000
0003E039C0380000000000
0007C03380700000000000
0007807700E00000000000
000F806600E00000000000
000F00EE01C00000000000
001E01DC03800000000000
003E01F803800000000000
003C03B007000000000000
007C03E00E000000000000
00F807E00C000000000000
00F007C01C000000000000
01F00F8018000000000000
01E00F0030000000000000
03E00E0070000000000000
07C01C0060000000000000
07C01C00C0000000000000
0F803C0180000000000000
0F80780180000000000000
1F00F80300000000000000
1E01F00600000000000000
3E01F00C00000000000000
3C03F00800000000000000
7C06E01000000000000000
7C18E03000000000000000
7830E06000000000000000
F860E0C000000000000000
F0C1E30000000000000000
F381FE0000000000000000
FE00FC0000000000000000
FC00E00000000000000000
F000000000000000000000
ENDCHAR
STARTCHAR 0058
ENCODING 88
SWIDTH 326 0
DWIDTH 17 0
BBX 96 68 -50 -22
BITMAP
0000000000000000000000FC
0000000000000000000007FF
000000000000000200001FFF
000000000000000300007F1E
00000000000000030000F806
00000000000000030001E004
000000000000000100078000
0000000000000001800F0000
0000000000000001801E0000
0000000000000001803C0000
000000000000000180780000
000000000000000180F00000
000000000000000180E00000
000000000000000181C00000
000000000000000183800000
000000000000000187000000
00000000000000018E000000
00000000000000019E000000
00000000000000019C000000
0000000000000001B8000000
0000000000000001F0000000
0000000000000001E0000000
0000000000000001E0000000
0000000000000001C0000000
000000000000000380000000
000000000000000780000000
000000000000000780000000
000000000000000F80000000
000000000000001F80000000
000000000000003B80000000
000000000000003B80000000
000000000000007380000000
00000000000000E380000000
00000000000001C380000000
00000000000001C380000000
000000000000038380000000
000000000000070780000000
0000000000000E0780000000
0000000000000C0780000000
0000000000001C0780000000
000000000000380780000000
000000000000700780000000
000000000000E00F80000000
000000000000C00F80000000
000000000001800F00000000
000000000003000F00000000
000000000007000F00000000
00000000000E001F00000000
00000000001C001F00000000
000000000038001F00000000
000000000070001F00000000
0000000000E0001E00000000
0000000001C0001E00000000
000000000300000800000000
000000000600000000000000
000000000C00000000000000
000000001800000000000000
000000007000000000000000
00000000C000000000000000
000000018000000000000000
000000070000000000000000
0000001C0000000000000000
000000300000000000000000
000001C00000000000000000
000007000000000000000000
C0003C000000000000000000
F003E0000000000000000000
7FFE00000000000000000000
ENDCHAR
STARTCHAR 0059
ENCODING 89
SWIDTH 461 0
DWIDTH 24 0
BBX 41 80 -5 -33
BITMAP
0000000E0000
0030007C0000
003C0FCC0000
003FFE180000
0003C0380000
000000300000
000000700000
000000E00000
000000C00000
000001C00000
000001800000
000003000000
000007000180
000006000780
00000E000F80
00001C000F00
000018001F00
000038001E00
000070003E00
000060007C00
0000E0007C00
0001C000F800
0001C001F000
00038001F000
00070003E000
00070007E000
000E000FC000
001E000F8000
001C001B8000
003C00370000
003800770000
0070006E0000
00F000CE0000
00E0019C0000
01E0039C0000
01C003380000
03C006700000
07C00C700000
078018E00000
0F8038E00000
0F0071C00000
1F00E3C00000
1F01C3800000
1F0387000000
3F8F07000000
3FFE0E000000
3FFC1E000000
3FF01C000000
3FE03C000000
1F8038000000
000078000000
0000F0000000
0000E0000000
0001E0000000
0001C0000000
0003C0000000
000780000000
000780000000
000F00000000
001F00000000
001E00000000
003C00000000
003C00000000
007800000000
00F800000000
00F000000000
01F000000000
03E000000000
03E000000000
07C000000000
0F8000000000
0F8000000000
1F0000000000
1F0000000000
3E0000000000
7E0000000000
7C0000000000
FC0000000000
F80000000000
F00000000000
ENDCHAR
STARTCHAR 005A
ENCODING 90
SWIDTH 596 0
DWIDTH 31 0
BBX 54 66 -8 -17
BITMAP
00007000000000
0000FC00000000
0001FF00000000
0001FFF0000000
0000FFFFFFF000
00000FFFFFF000
0000000000E000
0000000000C000
0000000001C000
00000000018000
00000000030000
00000000060000
000000000C0000
00000000180000
00000000300000
00000007F80000
0000007FFF0000
000001F1BF8000
0000070307C000
00001C0603E000
0000300801E3FC
0000603001FFFC
0000C06000FFF8
000181C003F800
000187000FF000
0001FC003EF000
0000F000F8F000
00000003C0F000
0000000F00F000
0000001E01E000
0000007801E000
000000E001E000
000001C003E000
0000078003C000
00000E0003C000
00001C00078000
00003800078000
000060000F0000
0000C0000F0000
000380001E0000
000700001E0000
000E00003C0000
001C00007C0000
00380000780000
00300000F00000
00600001F00000
00C00001E00000
01800003C00000
03000007800000
0700000F000000
0600001F000000
0C00003E000000
1C00007C000000
18000078000000
300000F0000000
300003E0000000
600007C0000000
60000F80000000
60001E00000000
E0003C00000000
C000F800000000
E003E000000000
E00F8000000000
783E0000000000
3FF80000000000
07800000000000
ENDCHAR
STARTCHAR 005B
ENCODING 91
SWIDTH 403 0
DWIDTH 21 0
BBX 34 55 1 -8
BITMAP
00000003C0
0000000F00
0000001E00
0000003C00
0000003C00
0000007800
0000007800
000000F000
000000F000
000001E000
000003C000
000003C000
0000078000
0000078000
00000F0000
00000F0000
00001E0000
00003C0000
00003C0000
0000780000
0000780000
0000F00000
0000F00000
0001E00000
0003C00000
0003C00000
0007800000
0007800000
000F000000
000F000000
001E000000
003E000000
003C000000
0078000000
0078000000
00F0000000
00F0000000
01E0000000
03E0000000
03C0000000
0780000000
0780000000
0F00000000
0F00000000
1E00000000
3E00000000
3C00000000
7C00000000
7800000000
F000000000
F000000000
F000000000
7800000000
3800000000
0800000000
ENDCHAR
STARTCHAR 005C
ENCODING 92
SWIDTH 365 0
DWIDTH 19 0
BBX 14 61 2 -13
BITMAP
8000
C000
C000
C000
4000
6000
6000
6000
2000
2000
3000
3000
3000
1000
1000
1800
1800
1800
0800
0C00
0C00
0C00
0400
0400
0600
0600
0600
0200
0300
0300
0300
0300
0100
0180
0180
0180
0080
00C0
00C0
00C0
00C0
0040
0060
0060
0060
0020
0030
0030
0030
0030
0010
0018
0018
0018
0018
000C
000C
000C
000C
0004
0004
ENDCHAR
STARTCHAR 005D
ENCODING 93
SWIDTH 384 0
DWIDTH 20 0
BBX 34 55 -2 -8
BITMAP
0000000C00
0000000F00
0000000780
0000000780
00000007C0
0000000780
0000000F00
0000000F00
0000001E00
0000001E00
0000003C00
0000007C00
0000007800
000000F000
000000F000
000001E000
000001E000
000003C000
000007C000
0000078000
00000F0000
00000F0000
00001E0000
00001E0000
00003C0000
00003C0000
0000780000
0000F00000
0000F00000
0001E00000
0001E00000
0003C00000
0003C00000
0007800000
000F000000
000F000000
001E000000
001E000000
003C000000
003C000000
0078000000
0070000000
00F0000000
01E0000000
01E0000000
03C0000000
03C0000000
0780000000
0780000000
0F00000000
1E00000000
1E00000000
3C00000000
F800000000
8000000000
ENDCHAR
STARTCHAR 005F
ENCODING 95
SWIDTH 615 0
DWIDTH 32 0
BBX 27 2 2 -2
BITMAP
FFFFFFE0
FFFFFF80
ENDCHAR
STARTCHAR 0060
ENCODING 96
SWIDTH 500 0
DWIDTH 26 0
BBX 11 7 5 23
BITMAP
6000
F000
F800
7E00
1F00
03C0
0060
ENDCHAR
STARTCHAR 0061
ENCODING 97
SWIDTH 442 0
DWIDTH 23 0
BBX 28 24 0 -2
BITMAP
000007F0
00003830
0000E020
00038000
000E00F0
001C01E0
003803C0
00700780
00E00F00
01C01E00
03803C00
07007800
0F00F800
1E01F000
3C03E010
3C07E020
781DC060
783BC040
FDE3C080
FFC3C100
FF83C600
FE03C800
7803F000
0001C000
ENDCHAR
STARTCHAR 0062
ENCODING 98
SWIDTH 423 0
DWIDTH 22 0
BBX 40 48 1 -2
BITMAP
000000000F
000000003F
000000007F
00000000E3
0000000382
0000000706
0000000E0C
0000001C08
0000003010
0000006030
000000C060
00000180C0
0000038180
0000070300
00000E0600
00001C0C00
0000381800
0000703000
0000E06000
0001E0C000
0001C18000
0003830000
0007040000
000F080000
001E100000
001C200000
003C400000
0079870000
00F31F8000
00F4278000
01E8470000
03D0C70000
03E1870000
07818E0000
0F038E0000
0F039C0000
1E03180000
1E07300000
3C07708000
3C07618000
7C07C30000
7803860000
7803F80000
F80DE00000
F818000000
FCE0000000
7F80000000
1800000000
ENDCHAR
STARTCHAR 0063
ENCODING 99
SWIDTH 346 0
DWIDTH 18 0
BBX 23 24 1 -3
BITMAP
00007C
0003FE
000E0E
00180E
00700E
00C00C
018018
039E70
071FC0
0E0400
1C0000
1C0000
380000
780000
780010
F00020
F00060
F000C0
F00180
F80300
FC0C00
FFF800
7FE000
0E0000
ENDCHAR
STARTCHAR 0064
ENCODING 100
SWIDTH 461 0
DWIDTH 24 0
BBX 54 47 1 -2
BITMAP
000000000000F8
000000000007FC
00000000000E1C
0000000000381C
00000000006018
0000000000C018
00000000038030
00000000070070
000000000E0060
000000001C00C0
00000000380180
00000000700300
00000000E00600
00000000E00C00
00000001C03800
00000003806000
0000000701C000
0000000E070000
0000001E1C0000
0000001DF00000
000003FFC00000
000001FC000000
000000F0000000
000000E0000000
000001E0000000
000073C0000000
0007FB80000000
001C1F80000000
00301F00000000
00E00F00000000
01C01E00000000
03801C00000000
07803C00000000
0F003800000000
0E007800000000
1E007000000000
3C00F000000000
3C01E010000000
7803E010000000
780FE020000000
781FC040000000
FCF3C080000000
FFE3C100000000
7FC3C200000000
7F03CC00000000
1803F000000000
0001C000000000
ENDCHAR
STARTCHAR 0065
ENCODING 101
SWIDTH 326 0
DWIDTH 17 0
BBX 23 24 0 -2
BITMAP
0001FC
000FFE
00180E
00300C
006000
006000
00E000
00E000
006000
007FC0
00F040
01FDC0
070F00
0E0000
1C0008
3C0010
780020
780060
F800C0
FC0180
7E0600
7FFC00
3FF000
0F0000
ENDCHAR
STARTCHAR 0066
ENCODING 102
SWIDTH 346 0
DWIDTH 18 0
BBX 48 58 -4 -13
BITMAP
00000000001E
00000000007F
0000000001C3
000000000303
000000000E07
000000001C06
00000000300E
00000000600C
00000000C018
000000018038
000000030070
000000060060
0000000E00C0
0000001C0180
000000380300
000000700E00
000000E01C00
000001C03000
000001C06000
00000381C000
000007030000
00000E0E0000
00001E380000
00003CE00000
00003F800000
0000FE000000
001FF0000000
000FE0000000
0001C0000000
0003FFF00000
0007FFF00000
000FE0000000
000FF0000000
001E78000000
003C38000000
003838000000
007838000000
00F018000000
00F018000000
01E018000000
01C030000000
03C030000000
078030000000
078060000000
0F0060000000
0E00C0000000
1E0080000000
1C0180000000
3C0300000000
380200000000
780600000000
780C00000000
F01800000000
F03000000000
F06000000000
F18000000000
FF0000000000
780000000000
ENDCHAR
STARTCHAR 0067
ENCODING 103
SWIDTH 423 0
DWIDTH 22 0
BBX 35 34 -6 -13
BITMAP
0000001FC0
000000F1E0
00000380C0
00000E0080
00001C0000
0000700000
0000E00000
0001C01E00
0003803C00
0007007C00
000E00F800
001C00F000
003803F000
007807E000
00F00FC000
00E01FC000
01E03F8000
03C0EF0000
03C3DE0000
03FFBE0000
07FE3C0000
07FC780000
07F0F00000
03C1E00000
0003E00000
0007C00000
000F800000
001F000000
003C000000
0078000000
01F0000000
03C0000000
0F80000000
FC00000000
ENDCHAR
STARTCHAR 0068
ENCODING 104
SWIDTH 442 0
DWIDTH 23 0
BBX 46 47 -1 -3
BITMAP
0000000000F8
0000000003FC
000000000E18
000000001C18
000000003018
000000006030
00000001C020
000000038060
0000000700C0
000000060180
0000000C0300
0000001C0600
000000380C00
000000701800
000000E03000
000001C06000
000003818000
000003870000
0000070C0000
00000E300000
00001DE00000
00003F000000
001FFC000000
001FF0000000
0008E0000000
0001E0100000
0003C1F80000
000387780000
000718700000
000F70E00000
001EC1C00000
001F81C00000
003E03800000
007C07000000
00F80E000000
01F01E000000
03E01C000000
07C038080000
078078080000
0F80F0100000
1F00E0200000
3E01E0400000
7C01E0800000
F803E1000000
F003E6000000
0003F8000000
0001E0000000
ENDCHAR
STARTCHAR 0069
ENCODING 105
SWIDTH 211 0
DWIDTH 11 0
BBX 22 33 1 -3
BITMAP
000070
0000F8
0001FC
0003FC
0003F8
0003F8
0001F0
000000
000000
000000
000000
000E00
001E00
003C00
007800
00F000
01E000
03E000
03C000
078000
0F8000
0F0000
1E0000
1E0200
3C0400
7C0800
781800
781000
F86000
F8C000
F90000
FE0000
780000
ENDCHAR
STARTCHAR 006A
ENCODING 106
SWIDTH 192 0
DWIDTH 10 0
BBX 39 43 -17 -14
BITMAP
0000000018
000000007E
00000000FE
00000000FE
00000001FE
00000000FC
00000000F8
0000000020
0000000000
0000000000
0000000000
0000000700
0000000F00
0000001F00
0000001E00
0000003C00
0000007C00
0000007800
000000F000
000001F000
000001E000
000003C000
000007C000
0000078000
00000F8000
00001F0000
00001E0000
00003C0000
00007C0000
0000780000
0000F00000
0001E00000
0003E00000
0003C00000
0007800000
000F000000
001E000000
003C000000
0078000000
00F0000000
03C0000000
0F80000000
FC00000000
ENDCHAR
STARTCHAR 006B
ENCODING 107
SWIDTH 403 0
DWIDTH 21 0
BBX 45 47 -1 -2
BITMAP
0000000000F8
0000000003F8
000000000E18
000000001C18
000000003010
000000006030
00000001C020
000000038040
0000000700C0
000000060180
0000000C0300
0000001C0200
000000380400
000000700800
000000E03000
000001C06000
00000380C000
000003810000
000007060000
00000E080000
00001C300000
00003DC00000
00003F000000
0000FC000000
003FE0000000
003FE07C0000
0003C3FC0000
000386380000
000718700000
000F60F00000
001EC1C00000
003F83800000
003E07000000
007C1C000000
00F870000000
01F1E0000000
03E3C0000000
07C3C0200000
078380400000
0F8780C00000
1F0781800000
3E0781000000
7C0782000000
F8078C000000
F00790000000
0007E0000000
000380000000
ENDCHAR
STARTCHAR 006C
ENCODING 108
SWIDTH 230 0
DWIDTH 12 0
BBX 37 48 2 -3
BITMAP
0000000038
00000000F8
00000001F8
0000000398
0000000618
0000000C30
0000001830
0000003060
00000060C0
000000C180
0000018180
0000038300
0000070600
00000E0C00
00001C1800
0000383000
0000782000
0000F06000
0000E0C000
0001C18000
0003830000
0007860000
000F080000
000E100000
001E200000
003C400000
0078800000
0079000000
00F2000000
01EC000000
01F8000000
03E0000000
07C0000000
0780000000
0F00000000
1F00000000
1E00000000
3E00000000
3C02000000
7C04000000
780C000000
F808000000
F810000000
F020000000
F0C0000000
F900000000
FE00000000
3800000000
ENDCHAR
STARTCHAR 006D
ENCODING 109
SWIDTH 576 0
DWIDTH 30 0
BBX 37 23 -1 -3
BITMAP
0000000018
0003800078
000780C1E0
000703C3C0
000F078DC0
001E1F1B80
003C3E2700
00387CCE00
0078FD9C00
00F17B1C00
01E6F63800
01ECF87800
03D9F0F000
07A3E0E010
0FC3C1E020
0F87C1E060
1F0F83C040
3E1F03C080
7C1E07C100
783C07C600
F07807C800
E00007F000
000001C000
ENDCHAR
STARTCHAR 006E
ENCODING 110
SWIDTH 423 0
DWIDTH 22 0
BBX 29 23 -1 -3
BITMAP
00000038
000380F0
000781E0
000707C0
000F0F80
001E1700
003C2600
0038CE00
00799C00
00F33800
01E67800
01EC7000
03D8F000
07B1E010
0FE1E020
0FC3C040
1F83C080
3E078100
7C078200
78078400
F807D800
E007E000
00038000
ENDCHAR
STARTCHAR 006F
ENCODING 111
SWIDTH 403 0
DWIDTH 21 0
BBX 26 24 0 -3
BITMAP
000007C0
00007FC0
0001C0C0
00070E00
000E3F00
003C6700
0070C700
00E1C700
01C18E00
03C38E00
07831C00
0F071800
1E073800
1E077000
3C07E000
3C07C100
78078600
78070C00
F807F000
F81C0000
FC700000
FFC00000
7F000000
30000000
ENDCHAR
STARTCHAR 0070
ENCODING 112
SWIDTH 423 0
DWIDTH 22 0
BBX 36 32 -10 -12
BITMAP
000001C000
000003C0F0
00000787F0
0000070FF0
00000E3070
00001E60F0
00003C80E0
00003900E0
00007A01C0
0000F401C0
0001F80380
0001F00700
0003E00E10
0007C00C20
000F801840
000F007080
001E00E300
003DC38C00
003DFE3800
0079FFC000
00F07C0000
01F0000000
01E0000000
03C0000000
07C0000000
0F80000000
0F00000000
1F00000000
3E00000000
7E00000000
FC00000000
F000000000
ENDCHAR
STARTCHAR 0071
ENCODING 113
SWIDTH 403 0
DWIDTH 21 0
BBX 30 36 -1 -14
BITMAP
000003FC
00000E1C
00007008
0000C000
00038000
00070000
001C0000
003803C0
00700780
00E00F80
01C00F00
03801E00
07803C00
0F00F800
0E01F000
1E03F000
3C07E000
3C1DC000
783B8000
7FF70000
FFCF0000
FF9E0000
FE3C0000
78380000
00780000
00F00000
01E00000
03C00000
07C00000
07800000
0F000000
0F000000
1E000000
1E000000
1F800000
07000000
ENDCHAR
STARTCHAR 0072
ENCODING 114
SWIDTH 346 0
DWIDTH 18 0
BBX 20 28 4 -3
BITMAP
002000
01F000
023000
042000
046000
064000
074000
03E070
01FFF0
017FE0
021FC0
020380
040700
080E00
081C00
103800
207800
40F000
81E020
81C040
03C040
078080
078100
0F8200
0F8400
0F9000
0FE000
078000
ENDCHAR
STARTCHAR 0073
ENCODING 115
SWIDTH 326 0
DWIDTH 17 0
BBX 21 26 1 -2
BITMAP
000380
000780
000980
000900
000900
000A00
000C00
000800
000C00
001C00
002C00
004C00
008C00
010C00
021E00
041E00
3C1E00
781E08
703E10
603C20
E07C60
C0FC80
C1F900
43F600
3FF800
1FE000
ENDCHAR
STARTCHAR 0074
ENCODING 116
SWIDTH 230 0
DWIDTH 12 0
BBX 51 41 2 -3
BITMAP
00000006000000
0000001F000000
0000003F000000
00000076000000
000000C6000000
0000018C000000
00000308000000
00000610000000
00001C30000000
00003860000000
00003040000000
000060800003E0
0000E10000FFE0
0001C2007FFF80
000384FFFFE000
00FFFFFFC00000
07FFFC00000000
001E2000000000
001C4000000000
00388000000000
00790000000000
00F20000000000
00E40000000000
01E80000000000
03F00000000000
07C00000000000
07800000000000
0F000000000000
1F000000000000
1E000000000000
3E000000000000
3C010000000000
7C020000000000
78040000000000
78080000000000
F8100000000000
F8200000000000
F8400000000000
F9800000000000
FE000000000000
38000000000000
ENDCHAR
STARTCHAR 0075
ENCODING 117
SWIDTH 423 0
DWIDTH 22 0
BBX 28 23 0 -3
BITMAP
00070070
000F00E0
001E01C0
003C0380
00780700
00F00E00
00E01E00
01C03C00
03C03800
07807000
0700F000
0F01E000
1E03C000
3C07C000
3C0F8040
781F8080
78378100
F8EF0200
FF8F0400
FF0F0800
FE0F3000
F80FC000
00070000
ENDCHAR
STARTCHAR 0076
ENCODING 118
SWIDTH 346 0
DWIDTH 18 0
BBX 23 24 1 -3
BITMAP
000004
00003E
003C62
0078C6
007986
00F104
01E30C
01E618
03C610
078E30
078C60
0F0CC0
0F1C80
1E1980
1E1B00
3C1E04
3C1C08
781C10
783E60
787FC0
FDC700
FF0000
FE0000
780000
ENDCHAR
STARTCHAR 0077
ENCODING 119
SWIDTH 557 0
DWIDTH 29 0
BBX 34 23 1 -2
BITMAP
00070007C0
000F000FC0
001E0019C0
003C0E3180
00781E6180
00703CC100
00F078C200
01E0718600
03C0F18400
03C1E30800
0781E31000
0F03C73000
0F07876000
1E0786C000
1C0F078100
3C1F070200
383E060400
787E0F0800
78FE1FF000
F9BE61C000
FE3FC00000
FC3F000000
F03C000000
ENDCHAR
STARTCHAR 0078
ENCODING 120
SWIDTH 384 0
DWIDTH 20 0
BBX 28 26 -1 -3
BITMAP
00000010
00000020
00007040
0000E080
0003E100
0005C200
000BC400
000BC800
00179000
0027B000
0047E000
004FC000
008F8000
010F0000
021E0000
041E0040
041E0080
003E0100
007E0200
01BE0400
033E0800
063E1000
0C1E6000
381FC000
70060000
E0000000
ENDCHAR
STARTCHAR 0079
ENCODING 121
SWIDTH 403 0
DWIDTH 21 0
BBX 32 32 -5 -13
BITMAP
00003807
0000781F
0000F01E
0001E03C
0003C07C
000380F8
000781F0
000F03F0
001E07E0
001C0FC0
003C1FC0
00783F80
00F06F00
00F0DF00
01E1BE00
01C23C00
03C47800
03F8F800
07F0F000
07C1E000
0703C000
00078000
000F0000
001E0000
003C0000
00780000
00F00000
01E00000
03C00000
07800000
1E000000
F8000000
ENDCHAR
STARTCHAR 007A
ENCODING 122
SWIDTH 423 0
DWIDTH 22 0
BBX 31 40 -7 -15
BITMAP
00000400
00003E00
00004600
00008400
00008400
0000C800
00006800
00003C0E
00001FFE
000027FE
000041FC
00004038
00008070
00013EE0
00014780
0002E7C0
00047BFE
000803CE
00100FE4
001023E0
0000C3C0
000303C0
000607C0
000807C0
00300F80
00600F80
00801F00
01001F00
02003E00
04007C00
08007800
1000F800
3001F000
2003C000
40078000
400F0000
C03E0000
C0F80000
FFE00000
7E000000
ENDCHAR
STARTCHAR 007B
ENCODING 123
SWIDTH 384 0
DWIDTH 20 0
BBX 33 58 1 -10
BITMAP
0000000780
0000001F80
0000006100
000000C000
000001C000
0000038000
0000038000
0000070000
00000F0000
00000E0000
00001E0000
00003E0000
00003C0000
00007C0000
0000780000
0000F80000
0000F00000
0001F00000
0001E00000
0003C00000
0007C00000
0007800000
000F000000
001C000000
01F0000000
0180000000
00E0000000
00F0000000
00F0000000
00F0000000
00F0000000
01F0000000
01E0000000
01E0000000
03C0000000
03C0000000
0780000000
0780000000
0F00000000
0F00000000
0E00000000
1C00000000
1C00000000
3800000000
3800000000
3000000000
7000000000
6000000000
6000000000
4000000000
C000000000
4000000000
4000000000
4000000000
6000000000
7800000000
3800000000
1800000000
ENDCHAR
STARTCHAR 007C
ENCODING 124
SWIDTH 403 0
DWIDTH 21 0
BBX 30 50 4 -6
BITMAP
00000004
0000001C
0000003C
00000038
00000070
00000070
000000E0
000001E0
000001C0
000003C0
00000380
00000780
00000700
00000E00
00000E00
00001C00
00003C00
00003800
00007800
00007000
0000E000
0000E000
0001C000
0003C000
00038000
00078000
00070000
000F0000
000E0000
001C0000
001C0000
00380000
00780000
00700000
00F00000
00E00000
01C00000
01C00000
03800000
07800000
07000000
0F000000
0E000000
1C000000
1C000000
38000000
78000000
70000000
F0000000
E0000000
ENDCHAR
STARTCHAR 007D
ENCODING 125
SWIDTH 461 0
DWIDTH 24 0
BBX 33 58 -4 -10
BITMAP
0000000400
0000000E00
0000000F00
0000000300
0000000100
0000000080
0000000080
0000000180
0000000180
0000000100
0000000300
0000000300
0000000700
0000000600
0000000E00
0000001C00
0000001C00
0000003C00
0000003800
0000007800
000000F000
000000F000
000001E000
000001E000
000003E000
000003C000
000007C000
0000078000
0000078000
0000078000
0000038000
0000038000
000000C000
000003C000
00001E0000
0000380000
0000F80000
0000F00000
0001E00000
0003E00000
0007C00000
0007C00000
000F800000
000F000000
001F000000
001E000000
001E000000
003C000000
003C000000
0078000000
0070000000
0070000000
00E0000000
00C0000000
0180000000
4300000000
FC00000000
F000000000
ENDCHAR
STARTCHAR 00A1
ENCODING 161
SWIDTH 461 0
DWIDTH 24 0
BBX 28 44 -7 -25
BITMAP
000001E0
000003F0
000007F0
000007F0
000007F0
000007E0
000007C0
00000000
00000000
00000000
00000C00
00000C00
00001800
00003000
00003000
00006000
0000E000
0000C000
0001C000
00038000
00030000
00070000
000E0000
000E0000
001C0000
003C0000
00380000
00700000
00700000
00E00000
01E00000
01C00000
03C00000
07800000
07000000
0F000000
1E000000
1E000000
3C000000
7C000000
78000000
F0000000
F0000000
60000000
ENDCHAR
STARTCHAR 00A2
ENCODING 162
SWIDTH 442 0
DWIDTH 23 0
BBX 29 45 1 -3
BITMAP
00000018
00000030
00000030
00000060
00000040
000000C0
00000180
00000100
00000300
00000600
00003F80
0000E380
00030180
000E0180
00180380
00300300
00630600
00E7F800
01C3E000
03800000
07800000
07000000
0F000000
0E000000
1E000400
1E000800
3E001800
3E003000
3E006000
3E01C000
3F870000
1FFE0000
0FF00000
03000000
06000000
06000000
0C000000
0C000000
18000000
30000000
30000000
60000000
C0000000
C0000000
80000000
ENDCHAR
STARTCHAR 00A3
ENCODING 163
SWIDTH 692 0
DWIDTH 36 0
BBX 52 46 -9 -2
BITMAP
00000000000FE0
000000000070F0
0000000000C070
00000000018060
000000000300E0
000000000700C0
000000000E0180
000000001C0300
000000001C0600
00000000381C00
00000000787800
0000000071E000
00000000FF8000
000000FFFE0000
000000FFF00000
000000FFE00000
00000003C00000
00000003C00000
00000003801800
0000000781F800
00000007BFF000
0000001FFE0000
00007FFF001800
0000301E01F000
0000001E3FF000
0000001FFE0000
00007FFF000000
0000783C000000
00000078000000
00000078000000
000000F0000000
000000F0000000
000001E0000000
000001E0000000
000003C0000000
00000780000000
00000780000000
00000F00000000
00001E00000000
0FE03C00004000
7BFFF80001C000
E007FF801F8000
C003FFFFFF0000
E00F8FFFFC0000
7FFE001F800000
1FE00000000000
ENDCHAR
STARTCHAR 00A5
ENCODING 165
SWIDTH 634 0
DWIDTH 33 0
BBX 34 52 5 -5
BITMAP
00000E0000
10007E0000
3E07CC0000
1FFE1C0000
01E0180000
0000380000
0000300000
0000600000
0000E00000
0000C00000
0001C00000
0003800000
0003800180
00070007C0
0006000780
000E000F80
001C000F00
001C001F00
0038003E00
0078003E00
0070007C00
00F000F800
00E001B800
01E0017000
01C0027000
03C004E000
07800CE000
078019C000
0780318000
0F00638000
0F00C70000
1F83870000
1FDF0E0000
1FFC0E0000
1FF81C1000
0FE039F000
00007FE000
000FFE0000
FFFFF00000
FC00E3E000
0001FFE000
001FFE0000
FFFFC00000
FE07800000
0007000000
000F000000
001E000000
001E000000
003C000000
007C000000
0078000000
0070000000
ENDCHAR
STARTCHAR 00A6
ENCODING 166
SWIDTH 615 0
DWIDTH 32 0
BBX 55 58 2 -13
BITMAP
0000000000003C
000000000000FE
00000000000386
0000000000060E
00000000001C0C
0000000000380C
00000006006018
0000001F00C018
0000003F018030
00000076030070
000000C6060060
0000018C0C00C0
000007081C0180
00000E10380380
00001C30700700
00003860E00E00
00003041C00C00
00006083801800
0000E103803000
0001C207006000
000385CE01C000
01FFFFDC038000
07FFFF3C060000
001E20380C0000
001C4070380000
003880E0700000
007901E0C00000
00F203C3800000
00E4038E000000
01E80738000000
03F00FE0000000
07C03F80000000
0783FC00000000
0F01FC00000000
1F007FC0000000
1E007FE0000000
3E00FC60000000
3C01F820400000
7C03F820400000
7803DC21800000
78078C63000000
F80F866C000000
F83F01F0000000
F84F00C0000000
F89E00C0000000
FE1E0180000000
383C0180000000
00380300000000
00780200000000
00780600000000
00F00C00000000
00F01800000000
00E03000000000
01E06000000000
01E0C000000000
01E10000000000
01FE0000000000
00F00000000000
ENDCHAR
STARTCHAR 00A7
ENCODING 167
SWIDTH 634 0
DWIDTH 33 0
BBX 34 47 2 -4
BITMAP
000000FC00
000007FF00
00001C0F80
00003003C0
00007001C0
0001E001C0
0007E000C0
001DE000C0
0039E000C0
0073E001C0
0071E00180
00F1F00180
00F1F00300
00F1F9FE00
00F8F9FC00
00F8FCE000
00FC7C0000
007C7E0000
007E3F0000
003E1F0000
003F1F8000
001F8FC000
000F87C000
0007C7E000
0007E3E000
0003E3F000
0001F1F000
0000F1F000
0000F8F800
000078F800
00007CF800
1F003CF800
3F003C7800
3E001C7000
7C001C7000
78001CF000
F8001CE000
F0001CE000
F0001DC000
E000198000
F0001B8000
F000360000
78003C0000
7C00780000
3FEFE00000
0FFF000000
0040000000
ENDCHAR
STARTCHAR 00A8
ENCODING 168
SWIDTH -480 0
DWIDTH -25 0
BBX 15 7 -23 24
BITMAP
3C1E
7E3E
7E7E
FE7E
FC7E
7C7C
0010
ENDCHAR
STARTCHAR 00A9
ENCODING 169
SWIDTH 634 0
DWIDTH 33 0
BBX 32 32 -1 -2
BITMAP
00001E00
0003FFC0
000E01F0
00300038
0060079C
00C039CE
038040CE
070180C7
06020087
0C040187
1C080303
38100603
38300803
70603003
70C0C007
6D8F0007
E3F00007
E3000006
E700000E
E600000E
EE00001C
EC000018
FC000038
7C000070
7C0000E0
780100C0
3C020380
1C0C0700
1F301C00
07C07000
03FFC000
00380000
ENDCHAR
STARTCHAR 00AA
ENCODING 170
SWIDTH 538 0
DWIDTH 28 0
BBX 26 24 5 13
BITMAP
0003FE00
00070700
000C0700
001C0F00
001C0E00
000E1E00
0001FC00
000E3800
00383800
00E07000
0180F000
0700E040
0701E080
0E07C100
1E0FC200
1FFBC400
1FE38800
1FC7F000
0603E000
00000000
00000000
00000000
7FFFF800
FFFFF000
ENDCHAR
STARTCHAR 00AB
ENCODING 171
SWIDTH 596 0
DWIDTH 31 0
BBX 24 18 7 -1
BITMAP
000F8F
001E3C
0078F0
01E3C0
078780
0F1E00
3C7800
71E000
E3C000
F38000
738000
738000
39C000
39C000
1CE000
1CE000
0E7000
063000
ENDCHAR
STARTCHAR 00AC
ENCODING 172
SWIDTH 461 0
DWIDTH 24 0
BBX 44 44 1 -3
BITMAP
000000000020
000000000070
0000080000E0
0000180003C0
00001C000F80
00001F007700
00000FFF8E00
000003FC1C00
000000003800
000000007000
00000000E000
00000001C000
00000003C000
000000078000
0000000F0000
0000000E0000
0000001C0000
0000003C0000
000000780000
000000F00000
000000E00000
000001E00000
000073C00000
0007FB800000
001C1F800000
00301F000000
00E00E000000
01C01E000000
03801C000000
07803C000000
0F0078000000
0E0078000000
1E00F0000000
3C00F0000000
3C01E0100000
7803E0100000
780FE0200000
781FC0400000
FCF3C0800000
FFE3C1000000
7FC3C2000000
7F03CC000000
1803F0000000
0001C0000000
ENDCHAR
STARTCHAR 00AE
ENCODING 174
SWIDTH 634 0
DWIDTH 33 0
BBX 32 32 -1 -2
BITMAP
00001E00
0003FFC0
000E01F0
00300038
0060001C
00C0008E
038007EE
07004867
06039067
0FFCA067
1C014063
38018063
3F8280C3
786700C3
78350187
743A0307
E41C0607
E21C0C06
E1BC300E
E07FC00E
E076001C
E0E70018
E0E30038
61C38070
71C18060
7381C0C0
3F00C380
1F00E700
1E007C00
07807000
03FFC000
00380000
ENDCHAR
STARTCHAR 00AF
ENCODING 175
SWIDTH 442 0
DWIDTH 23 0
BBX 22 2 13 23
BITMAP
FFFFFC
FFFFF8
ENDCHAR
STARTCHAR 00B1
ENCODING 177
SWIDTH 653 0
DWIDTH 34 0
BBX 56 47 2 -2
BITMAP
0000000000007E
000000000001FF
00000000000703
00000000000E03
00000000001803
00000000007002
0000000600E006
0000001F01C00C
0000003F038008
00000076070018
000000C6060070
0000018C0E00C0
000003081C0180
00000E10380700
00000C30701C00
00001860F07000
00003041E3C000
00007081DF0000
0000E103F80000
0001C21FC00000
00039FFF000000
1FFFFF9E000000
1FFFD01C000000
001E203C000000
001C4078000000
003880F03E0000
007900F0FE0000
00F201E31C0000
00E403CC1C0000
01E80798380000
03F00760700000
07C00FC1C00000
07801F83800000
0F003E0E000000
1F007C3C000000
1E00F8F0000000
3E00F8E0000000
3C01F1E0100000
7C03E1E0100000
7807C1C0200000
780F83C0400000
F81F03C0800000
F83E03C1000000
F87C03C2000000
F8F803CC000000
FE0003F0000000
380001C0000000
ENDCHAR
STARTCHAR 00B2
ENCODING 178
SWIDTH 615 0
DWIDTH 32 0
BBX 55 58 2 -13
BITMAP
0000000000003C
000000000000FE
00000000000386
0000000000060E
00000000001C0C
0000000000380C
00000006006018
0000001F00C018
0000003F018030
00000076030070
000000C6060060
0000018C0C00C0
000007081C0180
00000E10380380
00001C30700700
00003860E00E00
00003041C00C00
00006083801800
0000E103803000
0001C207006000
000385CE01C000
01FFFFDC038000
07FFFF3C060000
001E20380C0000
001C4070380000
003880E0700000
007901E0C00000
00F203C3800000
00E4038E000000
01E80738000000
03F00FE0000000
07C03F80000000
0783FC00000000
0F01FC00000000
1F007FC0000000
1E007FE0000000
3E00FC60000000
3C01F820400000
7C03F820400000
7803DC21800000
78078C63000000
F80F866C000000
F83F01F0000000
F84F00C0000000
F89E00C0000000
FE1E0180000000
383C0180000000
00380300000000
00780200000000
00780600000000
00F00C00000000
00F01800000000
00E03000000000
01E06000000000
01E0C000000000
01E10000000000
01FE0000000000
00F00000000000
ENDCHAR
STARTCHAR 00B3
ENCODING 179
SWIDTH 500 0
DWIDTH 26 0
BBX 57 47 2 -10
BITMAP
0000000600300000
0000001F00F80000
0000003F01F80000
0000007603F00000
000000C60F300000
0000018C1C200000
0000070838400000
00000E1070800000
00001C30E1800000
00003861C3000000
0000304182000780
000060830401FF80
0000E10708FFFF00
0001C20EFFFFC000
000385FFFFC00000
01FFFFFFC0000000
07FFFC7080000000
001E20F100000000
001C40E200000000
003881C400000000
0079038800000000
00F2079000000000
00E4072000000000
01E80E8000000000
03F01F0000000000
07C01E0000000000
07803C0000000000
0F00780000000000
1F00700000000000
1E00F00000000000
3E01E00000000000
3C01E00000000000
7C03C00000000000
7807C00000000000
780F800000000000
F817800000000000
F82F000000000000
F84F000000000000
F99F000000000000
FE1E000000000000
381E000000000000
003E000000000000
003E000000000000
003E000000000000
003F040000000000
001FF80000000000
001FE00000000000
ENDCHAR
STARTCHAR 00B4
ENCODING 180
SWIDTH -557 0
DWIDTH -29 0
BBX 11 7 -23 24
BITMAP
0060
00E0
01E0
07C0
0F00
3800
C000
ENDCHAR
STARTCHAR 00B5
ENCODING 181
SWIDTH 346 0
DWIDTH 18 0
BBX 28 22 -1 -3
BITMAP
00000060
0003C1F0
000787F0
00070CE0
000F1040
001E2000
003C4000
003C8000
00790000
00F20000
01F40000
01E80000
03D00000
07E00000
0FC00000
0F800000
1F000000
3E000000
7C000000
7C000000
F8000000
E0000000
ENDCHAR
STARTCHAR 00B6
ENCODING 182
SWIDTH 500 0
DWIDTH 26 0
BBX 35 41 1 -13
BITMAP
0000000020
00000FFC60
0000FFFFC0
0003FFDF80
000FFFBB00
003FFF3300
007FFE6600
00FFFCCC00
01FFF9CC00
01FFF19800
03FFE33000
03FFC73000
03FF866000
03FF0C6000
01FC18C000
00F0398000
0000318000
0000630000
0000E60000
0001C60000
00018C0000
00030C0000
0007180000
000E380000
000C300000
0018600000
0038E00000
0070C00000
00E1C00000
01E3800000
01C7800000
0387000000
078F000000
0F1E000000
1E1C000000
3E3C000000
7C78000000
F8F8000000
F1F0000000
C1F0000000
01C0000000
ENDCHAR
STARTCHAR 00B7
ENCODING 183
SWIDTH 346 0
DWIDTH 18 0
BBX 7 8 9 4
BITMAP
1C
7E
FE
FE
FE
FC
F8
20
ENDCHAR
STARTCHAR 00B8
ENCODING 184
SWIDTH 500 0
DWIDTH 26 0
BBX 8 7 0 -12
BITMAP
02
04
0F
03
03
46
FC
ENDCHAR
STARTCHAR 00B9
ENCODING 185
SWIDTH 692 0
DWIDTH 36 0
BBX 56 53 2 -9
BITMAP
0000000000007E
000000000001FF
00000000000703
00000000000E03
00000000001803
00000000007002
0000000600E006
0000001F01C00C
0000003F038008
00000076070018
000000C6060070
0000018C0E00C0
000003081C0180
00000E10380700
00000C30701C00
00001860F07000
00003041E3C000
00007081DF0000
0000E103F80000
0001C21FC00000
00039FFF000000
1FFFFF9E000000
1FFFD01C000000
001E203C000000
001C4078000000
003880F0080000
007900F0FC0000
00F201E3BC0000
00E403CE380000
01E80798700000
03F00760700000
07C00FC0E00000
07801F81C00000
0F003E03C00000
1F007C03800000
1E00F807000000
3E00F80F000000
3C01F00E000000
7C03E01E000000
7807C03C000000
780F803C000000
F81F0078000000
F83E0078000000
F87C00F0000000
F8F800F0000000
FE0001F0000000
380001E0000000
000001E0000000
000003E0000000
000003F0000000
000003F0200000
000001FFC00000
000000FF000000
ENDCHAR
STARTCHAR 00BA
ENCODING 186
SWIDTH 423 0
DWIDTH 22 0
BBX 27 25 4 13
BITMAP
00000F00
00001980
00003180
00007180
0001B100
00033900
00063FE0
000C1F80
001C0600
00380400
00700C00
00E00800
00E01000
01C03000
01C06000
03C0C000
03C18000
03E60000
03FC0000
01F00000
00000000
00000000
00000000
FFFFE000
FFFFC000
ENDCHAR
STARTCHAR 00BB
ENCODING 187
SWIDTH 596 0
DWIDTH 31 0
BBX 24 18 3 0
BITMAP
000E70
000738
0007BC
00039C
00039E
0001CE
0001CE
0001C7
0001E7
0003C7
000F1E
001C3C
0078F0
01E3C0
078F00
1E3E00
78F800
E1E000
ENDCHAR
STARTCHAR 00BC
ENCODING 188
SWIDTH 653 0
DWIDTH 34 0
BBX 56 53 2 -9
BITMAP
0000000000007E
000000000001FF
00000000000703
00000000000E03
00000000001803
00000000007002
0000000600E006
0000001F01C00C
0000003F038008
00000076070018
000000C6060070
0000018C0E00C0
000003081C0180
00000E10380700
00000C30701C00
00001860F07000
00003041E3C000
00007081DF0000
0000E103F80000
0001C21FC00000
00039FFF000000
1FFFFF9E000000
1FFFD01C000000
001E203C000000
001C4078000000
003880F03E0000
007900F0FE0000
00F201E31E0000
00E403CC1C0000
01E80798380000
03F00760700000
07C00FC1E00000
07801F83800000
0F003F0F000000
1F007E3C000000
1E00FCF0000000
3E00F8E0000000
3C01F1E0000000
7C03E1C0000000
7807C1C0000000
780F83C0000000
F81F03C0000000
F83E03C0000000
F87C03C0000000
F8F803C0000000
FE0003C0000000
380003C0000000
000003E0000000
000003E0000000
000001F0000000
000001F8200000
000000FFC00000
0000007F000000
ENDCHAR
STARTCHAR 00BD
ENCODING 189
SWIDTH 692 0
DWIDTH 36 0
BBX 66 53 2 -9
BITMAP
000000000000000F80
000000000000007FC0
00000000000000E1C0
0000000000000381C0
000000000000060180
0000000000000C0180
000000060000180300
0000001F0000700700
0000003F0000E00600
000000760001C00C00
000000C60003801800
0000018C0003003000
000003080007006000
00000610000E00C000
00001C30001C038000
000038600038060000
0000304000701C0000
0000608000F0700000
0000E10000E1C00000
0001C20001DF000000
000384FF1FFC000000
00FFFFFF1FC0000000
07FFFC000F00000000
001E20000E00000000
001C40001E00000000
003880073C00000000
0079007FB800000000
00F201C1F800000000
00E403017000000000
01E80600F000000000
03F01C01E000000000
07C03801E000000000
07807803C000000000
0F00F0038000000000
1F00E0078000000000
1E01E0078000000000
3E03C00F0000000000
3C03C01F0000000000
7C07C03E0000000000
780780FE0000000000
780F81DE0000000000
F81FCF9C0000000000
F82FFE3C0000000000
F847FC3C0000000000
F987F03C0000000000
FE01803C0000000000
3800003C0000000000
0000003C0000000000
0000003C0000000000
0000003C0000000000
0000003E0400000000
0000001FF800000000
0000000FE000000000
ENDCHAR
STARTCHAR 00BE
ENCODING 190
SWIDTH 480 0
DWIDTH 25 0
BBX 50 54 2 -10
BITMAP
000000000001C0
000000000007C0
00000000000FC0
00000000001CC0
000000000070C0
0000000000E180
0000000001C180
00000006038300
0000001E070600
0000003E0E0600
000000760C0C00
000000C4181800
00000188303000
00000308706000
00000610E0C000
00000C21C08000
00001843818000
00003087030000
00006107060000
0000E30E0C0000
0001C61C180000
00038CF8300000
00FFFFF8600000
07FFFFF0C00000
001E60E1000000
001CC1E2000000
003983C4000000
007B0388000000
00F40790000000
00E80F20000000
01F00EC0000000
03E01F00000000
07C03E00000000
07803C00000000
0F007800000000
1F00F000000000
1E00F000000000
3E01E000000000
3C01E000000000
7C03C000000000
7807C000000000
780F8000000000
F8178000000000
F82F0000000000
F84F0000000000
F99F0000000000
FE1E0000000000
381E0000000000
003E0000000000
003E0000000000
003E0000000000
003F0C00000000
003FF000000000
001FC000000000
ENDCHAR
STARTCHAR 00BF
ENCODING 191
SWIDTH 230 0
DWIDTH 12 0
BBX 31 44 -15 -24
BITMAP
0000007C
000000FE
000000FE
000001FE
000001FC
000001FC
000000F0
00000000
00000000
00000000
000003E0
000003C0
000003C0
00000780
00000700
00000E00
00001C00
00001800
00003000
0000E000
00018000
00030000
00060000
00180000
00300000
00E00000
01C00000
03800000
0F000000
1E000000
3C000000
3C000000
7801F000
7801F000
F800F800
F0007800
F0007000
F0007000
F000E000
F001E000
7803C000
3C070000
1F7E0000
07F00000
ENDCHAR
STARTCHAR 00C0
ENCODING 192
SWIDTH 500 0
DWIDTH 26 0
BBX 62 65 -25 -18
BITMAP
0000000000000600
0000000000000F00
0000000000001B00
0000000000003300
0000000000006300
000000000000C300
0000000000018600
0000000000030600
0000000000030600
0000000004060C00
000000000E0C0C00
000000001F181C00
000000000F981800
0000000007F01800
0000000000F83804
00000000007C3004
0000000000C07004
0000000001806008
000000000100E008
000000000300E018
000000000601C010
000000000601C020
000000000C038060
0000000018038040
0000000018078080
0000000030070300
00000000780F0600
000000007C0E1800
00000000FF9EF000
00000000A3FF8000
00000001A03C0000
00000003203C0000
0000000320780000
0000000620780000
0000000E20F80000
0000000C20F00000
0000001821F00000
0000001821E00000
0000003023E00000
0000007023C00000
0000006027C00000
000000C027C00000
000001C04F800000
000003804F800000
000003004F000000
000007005F000000
00000E007E000000
00000C007E000000
00001C007C000000
000038007C000000
0000700078000000
0000E00030000000
0001E00000000000
0003C00000000000
0007800000000000
000F000000000000
001E000000000000
003C000000000000
0078000000000000
01F0000000000000
0FE0000000000000
FFC0000000000000
FF80000000000000
7E00000000000000
3800000000000000
ENDCHAR
STARTCHAR 00C1
ENCODING 193
SWIDTH -557 0
DWIDTH -29 0
BBX 62 65 -25 -18
BITMAP
0000000000000600
0000000000000F00
0000000000001B00
0000000000003300
0000000000006300
000000000000C300
0000000000018600
0000000000030600
0000000000030600
0000003000060C00
00000078000C0C00
000000F800181C00
000001F000181800
0000078000301800
00001E0000603804
0000300000603004
0000000000C07004
0000000001806008
000000000100E008
000000000300E018
000000000601C010
000000000601C020
000000000C038060
0000000018038040
0000000018078080
0000000030070300
00000000780F0600
000000007C0E1800
00000000FF9EF000
00000000A3FF8000
00000001A03C0000
00000003203C0000
0000000320780000
0000000620780000
0000000E20F80000
0000000C20F00000
0000001821F00000
0000001821E00000
0000003023E00000
0000007023C00000
0000006027C00000
000000C027C00000
000001C04F800000
000003804F800000
000003004F000000
000007005F000000
00000E007E000000
00000C007E000000
00001C007C000000
000038007C000000
0000700078000000
0000E00030000000
0001E00000000000
0003C00000000000
0007800000000000
000F000000000000
001E000000000000
003C000000000000
0078000000000000
01F0000000000000
0FE0000000000000
FFC0000000000000
FF80000000000000
7E00000000000000
3800000000000000
ENDCHAR
STARTCHAR 00C2
ENCODING 194
SWIDTH 500 0
DWIDTH 26 0
BBX 62 65 -25 -18
BITMAP
0000000000000600
0000000000000F00
0000000000001B00
0000000000003300
0000000000006300
000000000000C300
0000000000018600
0000000000030600
0000000000030600
0000000000060C00
00000000000F8C00
00000000001F9C00
00000000003F9800
0000000000FB9800
0000000001E1F804
000000000760F004
0000000008C0F004
0000000001806008
000000000100E008
000000000300E018
000000000601C010
000000000601C020
000000000C038060
0000000018038040
0000000018078080
0000000030070300
00000000780F0600
000000007C0E1800
00000000FF9EF000
00000000A3FF8000
00000001A03C0000
00000003203C0000
0000000320780000
0000000620780000
0000000E20F80000
0000000C20F00000
0000001821F00000
0000001821E00000
0000003023E00000
0000007023C00000
0000006027C00000
000000C027C00000
000001C04F800000
000003804F800000
000003004F000000
000007005F000000
00000E007E000000
00000C007E000000
00001C007C000000
000038007C000000
0000700078000000
0000E00030000000
0001E00000000000
0003C00000000000
0007800000000000
000F000000000000
001E000000000000
003C000000000000
0078000000000000
01F0000000000000
0FE0000000000000
FFC0000000000000
FF80000000000000
7E00000000000000
3800000000000000
ENDCHAR
STARTCHAR 00C3
ENCODING 195
SWIDTH 500 0
DWIDTH 26 0
BBX 62 65 -25 -18
BITMAP
0000000000000600
0000000000000F00
0000000000001B00
0000000000003300
0000000000006300
000000000000C300
0000000000018600
0000000000030600
0000000000030600
0000000000060C00
00000000000C0C00
0000000000181C00
0000000000181800
0000000003FFF800
000000000FFFF804
00000000007FB004
0000000000C07004
0000000001806008
000000000100E008
000000000300E018
000000000601C010
000000000601C020
000000000C038060
0000000018038040
0000000018078080
0000000030070300
00000000780F0600
000000007C0E1800
00000000FF9EF000
00000000A3FF8000
00000001A03C0000
00000003203C0000
0000000320780000
0000000620780000
0000000E20F80000
0000000C20F00000
0000001821F00000
0000001821E00000
0000003023E00000
0000007023C00000
0000006027C00000
000000C027C00000
000001C04F800000
000003804F800000
000003004F000000
000007005F000000
00000E007E000000
00000C007E000000
00001C007C000000
000038007C000000
0000700078000000
0000E00030000000
0001E00000000000
0003C00000000000
0007800000000000
000F000000000000
001E000000000000
003C000000000000
0078000000000000
01F0000000000000
0FE0000000000000
FFC0000000000000
FF80000000000000
7E00000000000000
3800000000000000
ENDCHAR
STARTCHAR 00C4
ENCODING 196
SWIDTH -480 0
DWIDTH -25 0
BBX 62 65 -25 -18
BITMAP
0000000000000600
0000000000000F00
0000000000001B00
0000000000003300
0000000000006300
000000000000C300
0000000000018600
0000000000030600
0000000000030600
0000000000060C00
00003E3E000C0C00
00007E7E00181C00
0000FE7E00181800
0000FE7E00301800
0000FC7E00603804
0000787800603004
0000000000C07004
0000000001806008
000000000100E008
000000000300E018
000000000601C010
000000000601C020
000000000C038060
0000000018038040
0000000018078080
0000000030070300
00000000780F0600
000000007C0E1800
00000000FF9EF000
00000000A3FF8000
00000001A03C0000
00000003203C0000
0000000320780000
0000000620780000
0000000E20F80000
0000000C20F00000
0000001821F00000
0000001821E00000
0000003023E00000
0000007023C00000
0000006027C00000
000000C027C00000
000001C04F800000
000003804F800000
000003004F000000
000007005F000000
00000E007E000000
00000C007E000000
00001C007C000000
000038007C000000
0000700078000000
0000E00030000000
0001E00000000000
0003C00000000000
0007800000000000
000F000000000000
001E000000000000
003C000000000000
0078000000000000
01F0000000000000
0FE0000000000000
FFC0000000000000
FF80000000000000
7E00000000000000
3800000000000000
ENDCHAR
STARTCHAR 00C5
ENCODING 197
SWIDTH 500 0
DWIDTH 26 0
BBX 62 65 -25 -18
BITMAP
0000000000000600
0000000000000F00
0000000000001B00
0000000000003300
0000000000006300
000000000000C300
0000000000018600
0000000000030600
0000000000030600
00000000003E0C00
00000000006F0C00
0000000000D91C00
0000000000991800
0000000000B31800
0000000000E63804
00000000007C3004
0000000000C07004
0000000001806008
000000000100E008
000000000300E018
000000000601C010
000000000601C020
000000000C038060
0000000018038040
0000000018078080
0000000030070300
00000000780F0600
000000007C0E1800
00000000FF9EF000
00000000A3FF8000
00000001A03C0000
00000003203C0000
0000000320780000
0000000620780000
0000000E20F80000
0000000C20F00000
0000001821F00000
0000001821E00000
0000003023E00000
0000007023C00000
0000006027C00000
000000C027C00000
000001C04F800000
000003804F800000
000003004F000000
000007005F000000
00000E007E000000
00000C007E000000
00001C007C000000
000038007C000000
0000700078000000
0000E00030000000
0001E00000000000
0003C00000000000
0007800000000000
000F000000000000
001E000000000000
003C000000000000
0078000000000000
01F0000000000000
0FE0000000000000
FFC0000000000000
FF80000000000000
7E00000000000000
3800000000000000
ENDCHAR
STARTCHAR 00C6
ENCODING 198
SWIDTH 769 0
DWIDTH 40 0
BBX 89 73 -25 -27
BITMAP
000000000000060000000000
0000000000000F0000000000
0000000000001B0000000000
000000000000330000000000
0000000000006300000C0000
000000000000C30003FFF800
00000000000186001FFFFE00
00000000000306007000FF00
0000000000030601C0003F80
0000000000060C0700001F00
00000000000C0C0C00000E00
0000000000181C1800000400
000000000018183000000000
000000000030186000000000
00000000006038C000000000
000000000060318000000000
0000000000C0730000000000
000000000180620000000000
000000000100E60000000000
000000000300EC0000000000
000000000601CC0000000000
000000000601CC0000000000
000000000C03980000000000
000000001803983FF0000000
00000000180799F078000000
0000000030071F0078000000
00000000780F1C00F0000000
000000007C0E7E03E0000000
00000000FF9EE7FF80000000
00000000A3FFC3FE00000000
00000001A03F800000000000
00000003203F000000000000
00000003207E0007C0000000
00000006207C001CE0000000
0000000E20F80030E0000000
0000000C20F00040E0000000
0000001821F00180E0000000
0000001821E00101C0000000
0000003023E00201C0000000
0000007023C0040380000000
0000006027C0080780000000
000000C027C0100F00000000
000001C04FC0300E00000000
000003804FC0201C00000000
000003005FC0403800000000
000007005FC0C0F000000000
00000E007FC081E000000000
00000C007FE1078000000000
00001C007FF31F0000000000
000038007DFFFC0000000000
0000700078FFE00000000000
0000E0003004000000000000
0001E000000C000000000000
0003C000000C000000000000
000780000018000000000000
000F00000018000000000000
001E00000030000000000000
003C00000030000000000000
007800000070000000000000
01F000000060000000000000
0FE000000060000000000000
FFC0000000E0000000000000
FF80000000E0000000000000
7E00000001E0000000000000
3800000001E0000000000000
0000000001E0000000000000
0000000001E0000000000000
0000000001E0000000000000
0000000003E0000000000000
0000000003E0000000000000
0000000001F0000000000000
0000000001F0000000000000
0000000000F0000000000000
ENDCHAR
STARTCHAR 00C7
ENCODING 199
SWIDTH 442 0
DWIDTH 23 0
BBX 46 57 0 -12
BITMAP
0000000007F0
000000003FF8
00000000FFFC
00000003807C
0000000E003C
00000018003C
00000070003C
000000E00038
000001800038
000007000070
00000E000070
00001C0000E0
0000380001C0
000070000380
0000E0000700
0001C0000E00
0003C0001C00
000780007000
00070001C000
000E00078000
001E001C0000
303C00F00000
38780F800000
3F7FF8000000
07FE00000000
01E000000000
01E000000000
03C000000000
07C000000000
078000000000
0F8000000000
0F0000000000
1F0000000000
1E0000000000
3E0000000000
3E0000000000
7C0000000000
7C0000000000
7C0000000000
FC0000100000
F80000200000
F80000600000
F80000C00000
F80001800000
FC0003000000
FC0006000000
FC0018000000
7E0030000000
7F01C0000000
3FFF00000000
0FF800000000
040000000000
0F0000000000
030000000000
030000000000
460000000000
FC0000000000
ENDCHAR
STARTCHAR 00C8
ENCODING 200
SWIDTH 500 0
DWIDTH 26 0
BBX 52 69 -3 -27
BITMAP
0000000000C000
000000003FFF00
00000001FFFFE0
00000007000FF0
0000001C0003F0
000000700001F0
000000C00000E0
00003980000040
00007F00000000
00007E00000000
00001F00000000
00001FC0000000
000030E0000000
00006010000000
00006000000000
0000C000000000
0000C000000000
00008000000000
00018000000000
000187FF000000
0001BE07800000
0001F007800000
0003C00F000000
0007E03E000000
001E7FF8000000
00383FE0000000
00700000000000
00E00000000000
01C0007C000000
03C001CE000000
0780020E000000
0F000C0E000000
0F00180C000000
1E00301C000000
3E00601C000000
3C004038000000
7C008078000000
7C0100F0000000
780301E0000000
F80203C0000000
F8040780000000
FC0C0F00000000
FC081E00000000
7E107800000000
7F33F000000000
3FFF8000000000
0FFC0000000000
00400000000000
00C00000000000
00800000000000
01800000000000
01800000000000
03000000000000
03000000000000
07000000000000
06000000000000
0E000000000000
0E000000000000
0E000000000000
1E000000000000
1E000000000000
1C000000000000
1E000000000000
3E000000000000
3E000000000000
3E000000000000
3F000000000000
1F000000000000
1F000000000000
ENDCHAR
STARTCHAR 00C9
ENCODING 201
SWIDTH -557 0
DWIDTH -29 0
BBX 53 69 -4 -27
BITMAP
00000000006000
000000001FFF80
00000000FFFFF0
000000038007F8
0000000E0001F8
000000380000F8
00000060000070
00E000C0000020
01E00180000000
07C00300000000
0F000600000000
3C000C00000000
E0001800000000
00003000000000
00003000000000
00006000000000
00006000000000
00004000000000
0000C000000000
0000C3FF800000
0000DF03C00000
0000F803C00000
0001E007800000
0003F01F000000
000F3FFC000000
001C1FF0000000
00380000000000
00700000000000
00E0003E000000
01E000E7000000
03C00107000000
07800607000000
07800C06000000
0F00180E000000
1F00300E000000
1E00201C000000
3E00403C000000
3E008078000000
3C0180F0000000
7C0101E0000000
7C0203C0000000
7E060780000000
7E040F00000000
3F083C00000000
3F99F800000000
1FFFC000000000
07FE0000000000
00200000000000
00600000000000
00400000000000
00C00000000000
00C00000000000
01800000000000
01800000000000
03800000000000
03000000000000
07000000000000
07000000000000
07000000000000
0F000000000000
0F000000000000
0E000000000000
0F000000000000
1F000000000000
1F000000000000
1F000000000000
1F800000000000
0F800000000000
0F800000000000
ENDCHAR
STARTCHAR 00CA
ENCODING 202
SWIDTH 500 0
DWIDTH 26 0
BBX 52 69 -3 -27
BITMAP
0000000000C000
000000003FFF00
00000001FFFFE0
00000007000FF0
0000001C0003F0
000000700001F0
000000C80000E0
000001BC000040
0000037C000000
000007FC000000
00000FCE000000
00001E0E000000
00007006000000
00006002000000
00006003000000
0000C001000000
0000C000000000
00008000000000
00018000000000
000187FF000000
0001BE07800000
0001F007800000
0003C00F000000
0007E03E000000
001E7FF8000000
00383FE0000000
00700000000000
00E00000000000
01C0007C000000
03C001CE000000
0780020E000000
0F000C0E000000
0F00180C000000
1E00301C000000
3E00601C000000
3C004038000000
7C008078000000
7C0100F0000000
780301E0000000
F80203C0000000
F8040780000000
FC0C0F00000000
FC081E00000000
7E107800000000
7F33F000000000
3FFF8000000000
0FFC0000000000
00400000000000
00C00000000000
00800000000000
01800000000000
01800000000000
03000000000000
03000000000000
07000000000000
06000000000000
0E000000000000
0E000000000000
0E000000000000
1E000000000000
1E000000000000
1C000000000000
1E000000000000
3E000000000000
3E000000000000
3E000000000000
3F000000000000
1F000000000000
1F000000000000
ENDCHAR
STARTCHAR 00CB
ENCODING 203
SWIDTH -480 0
DWIDTH -25 0
BBX 55 69 -6 -27
BITMAP
00000000001800
0000000007FFE0
000000003FFFFC
00000000E001FE
0000000380007E
0000000E00003E
0000001800001C
3E3E0030000008
7E7E0060000000
FE7E00C0000000
FE7E0180000000
FC7E0300000000
78780600000000
00000C00000000
00000C00000000
00001800000000
00001800000000
00001000000000
00003000000000
000030FFE00000
000037C0F00000
00003E00F00000
00007801E00000
0000FC07C00000
0003CFFF000000
000707FC000000
000E0000000000
001C0000000000
0038000F800000
00780039C00000
00F00041C00000
01E00181C00000
01E00301800000
03C00603800000
07C00C03800000
07800807000000
0F80100F000000
0F80201E000000
0F00603C000000
1F004078000000
1F0080F0000000
1F8181E0000000
1F8103C0000000
0FC20F00000000
0FE67E00000000
07FFF000000000
01FF8000000000
00080000000000
00180000000000
00100000000000
00300000000000
00300000000000
00600000000000
00600000000000
00E00000000000
00C00000000000
01C00000000000
01C00000000000
01C00000000000
03C00000000000
03C00000000000
03800000000000
03C00000000000
07C00000000000
07C00000000000
07C00000000000
07E00000000000
03E00000000000
03E00000000000
ENDCHAR
STARTCHAR 00CC
ENCODING 204
SWIDTH 500 0
DWIDTH 26 0
BBX 34 49 0 -7
BITMAP
000003F000
00000E1E00
0000300700
0000C00780
0001800380
00020003C0
000C0003C0
00180003C0
003E0003C0
003F0003C0
007F8003C0
00C3E003C0
01807003C0
01800803C0
03000003C0
07000007C0
0600000780
0E00000780
0C00000F80
1C00000F00
1800000F00
3800001F00
3000001E00
7000019E00
700001BC00
700001BC00
6000017800
E000017800
E00003F000
E00002E000
E00007E000
E00005C000
E0000BC000
E000178000
E000270000
F0006E0000
70009E0000
78031C0000
3C06380000
0FF8700000
0000E00000
0001C00000
0003800000
0007000000
000E000000
001C000000
4070000000
7FC0000000
3F00000000
ENDCHAR
STARTCHAR 00CD
ENCODING 205
SWIDTH -557 0
DWIDTH -29 0
BBX 41 49 -7 -7
BITMAP
00000007E000
0000001C3C00
000000600E00
000001800F00
000003000700
000004000780
008018000780
01C030000780
03C020000780
07C060000780
1F00C0000780
780180000780
C00300000780
000300000780
000600000780
000E00000F80
000C00000F00
001C00000F00
001800001F00
003800001E00
003000001E00
007000003E00
006000003C00
00E000033C00
00E000037800
00E000037800
00C00002F000
01C00002F000
01C00007E000
01C00005C000
01C0000FC000
01C0000B8000
01C000178000
01C0002F0000
01C0004E0000
01E000DC0000
00E0013C0000
00F006380000
00780C700000
001FF0E00000
000001C00000
000003800000
000007000000
00000E000000
00001C000000
000038000000
0080E0000000
00FF80000000
007E00000000
ENDCHAR
STARTCHAR 00CE
ENCODING 206
SWIDTH 500 0
DWIDTH 26 0
BBX 34 49 0 -7
BITMAP
000003F000
00000E1E00
0000300700
0000C00780
0001800380
00020003C0
000C0403C0
00181E03C0
00103F03C0
0030FF03C0
0061E703C0
00C78303C0
019C0303C0
01800183C0
03000083C0
07000087C0
0600000780
0E00000780
0C00000F80
1C00000F00
1800000F00
3800001F00
3000001E00
7000019E00
700001BC00
700001BC00
6000017800
E000017800
E00003F000
E00002E000
E00007E000
E00005C000
E0000BC000
E000178000
E000270000
F0006E0000
70009E0000
78031C0000
3C06380000
0FF8700000
0000E00000
0001C00000
0003800000
0007000000
000E000000
001C000000
4070000000
7FC0000000
3F00000000
ENDCHAR
STARTCHAR 00CF
ENCODING 207
SWIDTH -480 0
DWIDTH -25 0
BBX 44 49 -10 -7
BITMAP
00000000FC00
000000038780
0000000C01C0
0000003001E0
0000006000E0
0000008000F0
0000030000F0
3E3E060000F0
7E7E040000F0
7E7F0C0000F0
FE7E180000F0
FC7E300000F0
787C600000F0
0000600000F0
0000C00000F0
0001C00001F0
0001800001E0
0003800001E0
0003000003E0
0007000003C0
0006000003C0
000E000007C0
000C00000780
001C00006780
001C00006F00
001C00006F00
001800005E00
003800005E00
00380000FC00
00380000B800
00380001F800
003800017000
00380002F000
00380005E000
00380009C000
003C001B8000
001C00278000
001E00C70000
000F018E0000
0003FE1C0000
000000380000
000000700000
000000E00000
000001C00000
000003800000
000007000000
00101C000000
001FF0000000
000FC0000000
ENDCHAR
STARTCHAR 00D0
ENCODING 208
SWIDTH 634 0
DWIDTH 33 0
BBX 53 48 -7 -4
BITMAP
00000003001FC0
00000003007FE0
0000000601F7F0
0000000E0381F0
0000001C0700F0
000000380C00F0
000000581800F8
000001B03000F8
000006306000F0
00001C60C000F0
C000F0E18000F0
FC1FC0C30000F0
7FFE01830001F0
020001860001F0
0000030C0001E0
000007180003E0
000006100003E0
00000E200003C0
00000C600007C0
00001CC00007C0
00003980000F80
00003900000F80
00007300001F00
0000F600001F00
0000E400003E00
0001EC00003E00
0001D800007C00
0003B01E00F800
0007A1FC00F800
00077FF001F000
007FFC0003E000
1FFF800003C000
001F800007C000
003F00000F8000
007E00001F0000
007E00003E0000
00FC00007C0000
01F80000F80000
01F80001F00000
03F00003E00000
07F0000F800000
07E0001F000000
0FC0007C000000
1FC001F0000000
1F800FC0000000
3F0FFF00000000
7F0FF000000000
3C000000000000
ENDCHAR
STARTCHAR 00D1
ENCODING 209
SWIDTH 500 0
DWIDTH 26 0
BBX 52 62 -9 -18
BITMAP
00000000040030
000000000600F0
000000000C03F0
000000001807E0
00000000180FC0
00000000301FC0
00000000603780
00000000E06780
00000001C08700
00000003818F00
0000003F8B0E00
000000FFFE1E00
000001BFFC1C00
0000003FE83C00
0000006C103800
000000DC207800
000001B8407000
00000338C0F000
00000E7180E000
000018E301E000
000071E203C000
C001C1C403C000
F00F0388078000
FFFC0798078000
1FC00F300F0000
00000F600F0000
00001E401E0000
00003C801E0000
00003D003C0000
00007B003C0000
0000FE007C0000
0001F400780000
0001E800F80000
0003F000F00000
0007F001F00000
000FE001E00000
000FC003E00000
001F8003E00000
003F0003C00000
007F0007C00000
007E0007C00000
00FC000F800000
01F8000F800000
03F8000F800000
03F0001F000000
07E0001F000000
07C0001F000000
0780003F000000
0000003E000000
0000003E000000
0000003E000300
0000007E000300
0000007E000600
0000007E000600
0000007E000E00
0000007E000C00
0000003E001800
0000003E003000
0000003F006000
0000001F80C000
0000000FFF8000
00000003FC0000
ENDCHAR
STARTCHAR 00D2
ENCODING 210
SWIDTH 500 0
DWIDTH 26 0
BBX 44 53 -1 -6
BITMAP
000000000080
000000003FF0
00000001FFF0
00000007E1E0
0000001F00E0
0000007C0080
000000F00F00
000003E03F00
000007806380
00008F00C380
0003DE018380
0003FC030380
0003F8030380
0000F8060380
0001FE040380
0003C38C0700
0007C0080700
000F80180700
000F00180F00
001E00100E00
003E00301E00
003C00301E00
007800201C00
00F800603C00
00F000603800
01E000607800
03E000607800
03C00040F000
07C00040F000
07800041E000
0F800043C000
0F000043C000
1F0000678000
1E0000678000
1E00006F0000
3C00007E0000
3C00003E0000
3C00003C0000
780000780000
780000FC0000
780000F70000
780001E10000
700003C00000
700007800000
F0000F000000
70001E000000
70003C000000
700078000000
7000E0000000
3803C0000000
3C0700000000
1FFC00000000
03C000000000
ENDCHAR
STARTCHAR 00D3
ENCODING 211
SWIDTH -557 0
DWIDTH -29 0
BBX 49 53 -6 -6
BITMAP
00000000000400
0000000001FF80
000000000FFF80
000000003F0F00
00000000F80700
00000003E00400
00000007807800
0000001F01F800
0000003C031C00
00400078061C00
00E000F00C1C00
01E001E0181C00
07C003C0181C00
0F000780301C00
3C000F00201C00
E0001E00603800
00003E00403800
00007C00C03800
00007800C07800
0000F000807000
0001F00180F000
0001E00180F000
0003C00100E000
0007C00301E000
0007800301C000
000F000303C000
001F000303C000
001E0002078000
003E0002078000
003C00020F0000
007C00021E0000
007800021E0000
00F800033C0000
00F000033C0000
00F00003780000
01E00003F00000
01E00001F00000
01E00001E00000
03C00003C00000
03C00007E00000
03C00007B80000
03C0000F080000
0380001E000000
0380003C000000
07800078000000
038000F0000000
038001E0000000
038003C0000000
03800700000000
01C01E00000000
01E03800000000
00FFE000000000
001E0000000000
ENDCHAR
STARTCHAR 00D4
ENCODING 212
SWIDTH 500 0
DWIDTH 26 0
BBX 44 53 -1 -6
BITMAP
000000000080
000000003FF0
00000001FFF0
00000007E1E0
0000001F00E0
0000007C0080
000000F00F00
000003E03F00
000007806380
00000F60C380
00001FF18380
00003FF30380
00007FF30380
0000FE760380
0001F0340380
0003C01C0700
0007C0180700
000F80180700
000F00180F00
001E00100E00
003E00301E00
003C00301E00
007800201C00
00F800603C00
00F000603800
01E000607800
03E000607800
03C00040F000
07C00040F000
07800041E000
0F800043C000
0F000043C000
1F0000678000
1E0000678000
1E00006F0000
3C00007E0000
3C00003E0000
3C00003C0000
780000780000
780000FC0000
780000F70000
780001E10000
700003C00000
700007800000
F0000F000000
70001E000000
70003C000000
700078000000
7000E0000000
3803C0000000
3C0700000000
1FFC00000000
03C000000000
ENDCHAR
STARTCHAR 00D5
ENCODING 213
SWIDTH 500 0
DWIDTH 26 0
BBX 44 53 -1 -6
BITMAP
000000000080
000000003FF0
00000001FFF0
00000007E1E0
0000001F00E0
0000007C0080
000000F00F00
000003E03F00
000007806380
00000F00C380
00001E018380
00003C030380
000078030380
0000FFFE0380
0001FFFC0380
0003C7EC0700
0007C0080700
000F80180700
000F00180F00
001E00100E00
003E00301E00
003C00301E00
007800201C00
00F800603C00
00F000603800
01E000607800
03E000607800
03C00040F000
07C00040F000
07800041E000
0F800043C000
0F000043C000
1F0000678000
1E0000678000
1E00006F0000
3C00007E0000
3C00003E0000
3C00003C0000
780000780000
780000FC0000
780000F70000
780001E10000
700003C00000
700007800000
F0000F000000
70001E000000
70003C000000
700078000000
7000E0000000
3803C0000000
3C0700000000
1FFC00000000
03C000000000
ENDCHAR
STARTCHAR 00D6
ENCODING 214
SWIDTH -480 0
DWIDTH -25 0
BBX 49 53 -6 -6
BITMAP
00000000000400
0000000001FF80
000000000FFF80
000000003F0F00
00000000F80700
00000003E00400
00000007807800
0000001F01F800
0000003C031C00
18180078061C00
7C7C00F00C1C00
FC7E01E0181C00
FCFE03C0181C00
FCFC0780301C00
F8FC0F00201C00
70701E00603800
00003E00403800
00007C00C03800
00007800C07800
0000F000807000
0001F00180F000
0001E00180F000
0003C00100E000
0007C00301E000
0007800301C000
000F000303C000
001F000303C000
001E0002078000
003E0002078000
003C00020F0000
007C00021E0000
007800021E0000
00F800033C0000
00F000033C0000
00F00003780000
01E00003F00000
01E00001F00000
01E00001E00000
03C00003C00000
03C00007E00000
03C00007B80000
03C0000F080000
0380001E000000
0380003C000000
07800078000000
038000F0000000
038001E0000000
038003C0000000
03800700000000
01C01E00000000
01E03800000000
00FFE000000000
001E0000000000
ENDCHAR
STARTCHAR 00D8
ENCODING 216
SWIDTH 557 0
DWIDTH 29 0
BBX 44 60 -1 -11
BITMAP
000000000100
000000000300
000000000780
000000003FF0
00000001FFF0
00000007F9E0
0000001F18E0
0000007C3080
000000F02F00
000003E07F00
00000780E380
00000F00C380
00001E018380
00003C030380
000078030380
0000F0060380
0001E0040380
0003C00C0700
0007C0180700
000F80180700
000F00380F00
001E00300E00
003E00701E00
007C00F01E00
007800A01C00
00F801E03C00
00F003603800
01E002607800
03E006607800
03C00440F000
07C00C40F000
07801841E000
0F801043C000
0F003043C000
1F0060678000
1E0040678000
1E00C06F0000
3C01807E0000
3C01803E0000
3C03003C0000
780600780000
780600FC0000
780C00F70000
780801E10000
701803C00000
703007800000
F0300F000000
70601E000000
70C03C000000
70C078000000
7180E0000000
3B03C0000000
3F0700000000
1FFC00000000
07C000000000
0C0000000000
180000000000
180000000000
300000000000
200000000000
ENDCHAR
STARTCHAR 00D9
ENCODING 217
SWIDTH 500 0
DWIDTH 26 0
BBX 45 49 -2 -4
BITMAP
0000000C0000
0000001C0000
000000380000
000000700000
000000E00078
000003E00078
010007C000F0
01C03B8001E0
01FFF70003C0
007F87000780
0003CE000780
0003FC000F00
0001F8001E00
00007C001E00
00007E003C00
0000E3807800
0001E0007000
0003C000F000
00038001E000
00078001E000
000F0003C000
000E00078000
001E00078000
003C000F0000
0038001E0000
0078001E0000
00F0003C0000
00E0007C0000
01E000780000
03C000F00000
03C000F00000
078001E00000
078003E00000
0F0003C00000
0F0007C00000
1E000F800000
1E000F800000
3E001F000000
3E003F000000
7C007E008000
7C00DE010000
7C01BC030000
FE073C060000
FF1C3C0C0000
FFF83C180000
FFF038200000
7FC03CC00000
7F003F800000
08003E000000
ENDCHAR
STARTCHAR 00DA
ENCODING 218
SWIDTH -557 0
DWIDTH -29 0
BBX 49 49 -6 -4
BITMAP
00000000C00000
00000001C00000
00000003800000
00000007000000
0000000E000780
0000003E000780
0010007C000F00
001C03B8001E00
001FFF70003C00
00E7F870007800
01E000E0007800
03E001C000F000
07C0038001E000
1E00078001E000
7800070003C000
C0000E00078000
00001E00070000
00003C000F0000
000038001E0000
000078001E0000
0000F0003C0000
0000E000780000
0001E000780000
0003C000F00000
00038001E00000
00078001E00000
000F0003C00000
000E0007C00000
001E0007800000
003C000F000000
003C000F000000
0078001E000000
0078003E000000
00F0003C000000
00F0007C000000
01E000F8000000
01E000F8000000
03E001F0000000
03E003F0000000
07C007E0080000
07C00DE0100000
07C01BC0300000
0FE073C0600000
0FF1C3C0C00000
0FFF83C1800000
0FFF0382000000
07FC03CC000000
07F003F8000000
008003E0000000
ENDCHAR
STARTCHAR 00DB
ENCODING 219
SWIDTH 500 0
DWIDTH 26 0
BBX 45 49 -2 -4
BITMAP
0000000C0000
0000001C0000
000000380000
000000700000
000000E00078
000003E00078
010007C000F0
01C03B8001E0
01FFF70003C0
007F87F00780
00000FF00780
00001FF00F00
00003FB81E00
00007C381E00
0000F0183C00
0001E0087800
0001E00C7000
0003C004F000
00038001E000
00078001E000
000F0003C000
000E00078000
001E00078000
003C000F0000
0038001E0000
0078001E0000
00F0003C0000
00E0007C0000
01E000780000
03C000F00000
03C000F00000
078001E00000
078003E00000
0F0003C00000
0F0007C00000
1E000F800000
1E000F800000
3E001F000000
3E003F000000
7C007E008000
7C00DE010000
7C01BC030000
FE073C060000
FF1C3C0C0000
FFF83C180000
FFF038200000
7FC03CC00000
7F003F800000
08003E000000
ENDCHAR
STARTCHAR 00DC
ENCODING 220
SWIDTH -480 0
DWIDTH -25 0
BBX 50 49 -7 -4
BITMAP
00000000600000
00000000E00000
00000001C00000
00000003800000
000000070003C0
0000001F0003C0
0008003E000780
000E01DC000F00
000FFFB8001E00
3C1FFC38003C00
7E3E0070003C00
7E7F00E0007800
FE7E01C000F000
FE7E03C000F000
7C7C038001E000
0000070003C000
00000F00038000
00001E00078000
00001C000F0000
00003C000F0000
000078001E0000
000070003C0000
0000F0003C0000
0001E000780000
0001C000F00000
0003C000F00000
00078001E00000
00070003E00000
000F0003C00000
001E0007800000
001E0007800000
003C000F000000
003C001F000000
0078001E000000
0078003E000000
00F0007C000000
00F0007C000000
01F000F8000000
01F001F8000000
03E003F0040000
03E006F0080000
03E00DE0180000
07F039E0300000
07F8E1E0600000
07FFC1E0C00000
07FF81C1000000
03FE01E6000000
03F801FC000000
004001F0000000
ENDCHAR
STARTCHAR 00DD
ENCODING 221
SWIDTH -557 0
DWIDTH -29 0
BBX 42 80 -6 -33
BITMAP
000000070000
0018003E0000
001E07E60000
001FFF0C0000
0001E01C0000
000000180000
000000380000
000000700000
000000600000
000000E00000
000000C00000
00C001800000
01C0038000C0
03C0030003C0
0780070007C0
1E000E000780
78000C000F80
C0001C000F00
000038001F00
000030003E00
000070003E00
0000E0007C00
0000E000F800
0001C000F800
00038001F000
00038003F000
00070007E000
000F0007C000
000E000DC000
001E001B8000
001C003B8000
003800370000
007800670000
007000CE0000
00F001CE0000
00E0019C0000
01E003380000
03E006380000
03C00C700000
07C01C700000
078038E00000
0F8071E00000
0F80E1C00000
0F81C3800000
1FC783800000
1FFF07000000
1FFE0F000000
1FF80E000000
1FF01E000000
0FC01C000000
00003C000000
000078000000
000070000000
0000F0000000
0000E0000000
0001E0000000
0003C0000000
0003C0000000
000780000000
000F80000000
000F00000000
001E00000000
001E00000000
003C00000000
007C00000000
007800000000
00F800000000
01F000000000
01F000000000
03E000000000
07C000000000
07C000000000
0F8000000000
0F8000000000
1F0000000000
3F0000000000
3E0000000000
7E0000000000
7C0000000000
780000000000
ENDCHAR
STARTCHAR 00DE
ENCODING 222
SWIDTH 576 0
DWIDTH 30 0
BBX 44 53 -1 -5
BITMAP
000000006000
00000000C000
00000001C000
000000038000
000000030000
0000000F0000
000000160000
000000260000
000000CC0000
0000039C0000
00000E180000
400038300000
F003E0300100
7FFF00600FE0
1FF000603FF0
000000C061F0
000001C1C1F0
0000018301F0
0000038601F0
0000070C01F0
0000071801F0
00000E3001E0
00000C7001E0
00001C6003E0
000038C003C0
0000398007C0
000073000780
000077000780
0000E6000F00
0001EC000F00
0001D8001E00
0003F8003C00
0007B0003C00
0007E0007800
000FE000F000
001FC000E000
001F8001C000
003F80038000
003F00070000
007E000E0000
00FE001C0000
00FC00780000
01F800E00000
03F803C00000
03F41F000000
07E7F8000000
0FE100000000
0FC000000000
1F8000000000
3F8000000000
3F0000000000
7F0000000000
7E0000000000
ENDCHAR
STARTCHAR 00DF
ENCODING 223
SWIDTH 461 0
DWIDTH 24 0
BBX 48 59 -4 -14
BITMAP
00000000001E
00000000007F
0000000001C3
000000000303
000000000E07
000000001C06
00000000300E
00000000600C
00000000C018
000000018038
000000030070
000000060060
0000000E00C0
0000001C0180
000000380300
000000700E00
000000E01C00
000001C03000
000001C06000
00000381C000
000007030000
00000E0E0000
00001E380000
00003CE00000
00003F800000
0000FEC00000
001FF0C00000
000FE0C00000
0001C0C00000
000380C00000
000780C00000
000F00E00000
000E00E00000
001E01E00000
003C01E00000
003801E00000
0079C3E00000
00F383E08000
00F783E08000
01E707C10000
01C607C20000
03C60FCC0000
07841F980000
07863F600000
0F03FFC00000
0E00FE000000
1E0000000000
1C0000000000
3C0000000000
380000000000
780000000000
780000000000
F00000000000
F00000000000
F00000000000
F00000000000
F00000000000
780000000000
100000000000
ENDCHAR
STARTCHAR 00E0
ENCODING 224
SWIDTH 500 0
DWIDTH 26 0
BBX 28 33 0 -3
BITMAP
00300000
00780000
007C0000
003F0000
000F8000
0001E000
00003000
00000000
00000000
000007F0
00003830
0000E020
00038000
000E00F0
001C01E0
003803C0
00700780
00E00F00
01C01E00
03803C00
07007800
0F00F800
1E01F000
3C03E010
3C07E020
781DC060
783BC040
FDE3C080
FFC3C100
FF83C600
FE03C800
7803F000
0001C000
ENDCHAR
STARTCHAR 00E1
ENCODING 225
SWIDTH -557 0
DWIDTH -29 0
BBX 36 33 -8 -2
BITMAP
00C0000000
00E0000000
03E0000000
07C0000000
1E00000000
3800000000
C000000000
0000000000
0000000000
00000007F0
0000003830
000000E020
0000038000
00000E00F0
00001C01E0
00003803C0
0000700780
0000E00F00
0001C01E00
0003803C00
0007007800
000F00F800
001E01F000
003C03E010
003C07E020
00781DC060
00783BC040
00FDE3C080
00FFC3C100
00FF83C600
00FE03C800
007803F000
000001C000
ENDCHAR
STARTCHAR 00E2
ENCODING 226
SWIDTH 500 0
DWIDTH 26 0
BBX 28 33 0 -2
BITMAP
00001C00
00003E00
00007E00
0001FE00
0007C600
001E0600
00300300
00000100
00000100
000007F0
00003830
0000E020
00038000
000E00F0
001C01E0
003803C0
00700780
00E00F00
01C01E00
03803C00
07007800
0F00F800
1E01F000
3C03E010
3C07E020
781DC060
783BC040
FDE3C080
FFC3C100
FF83C600
FE03C800
7803F000
0001C000
ENDCHAR
STARTCHAR 00E3
ENCODING 227
SWIDTH 500 0
DWIDTH 26 0
BBX 28 30 0 -3
BITMAP
00078180
001FFF00
0037FE00
00003C00
00000000
00000000
000007F0
00003830
0000E020
00038000
000E00F0
001C01E0
003803C0
00700780
00E00F00
01C01E00
03803C00
07007800
0F00F800
1E01F000
3C03E010
3C07E020
781DC060
783BC040
FDE3C080
FFC3C100
FF83C600
FE03C800
7803F000
0001C000
ENDCHAR
STARTCHAR 00E4
ENCODING 228
SWIDTH -480 0
DWIDTH -25 0
BBX 38 33 -10 -2
BITMAP
3C1E000000
7E3E000000
7E7E000000
FE7E000000
FC7E000000
7C7C000000
0010000000
0000000000
0000000000
00000001FC
0000000E0C
0000003808
000000E000
000003803C
0000070078
00000E00F0
00001C01E0
00003803C0
0000700780
0000E00F00
0001C01E00
0003C03E00
0007807C00
000F00F804
000F01F808
001E077018
001E0EF010
003F78F020
003FF0F040
003FE0F180
003F80F200
001E00FC00
0000007000
ENDCHAR
STARTCHAR 00E5
ENCODING 229
SWIDTH 500 0
DWIDTH 26 0
BBX 28 33 0 -2
BITMAP
0000F800
00010C00
00030400
00020400
00020800
00031800
0001F000
00000000
00000000
000007F0
00003830
0000E020
00038000
000E00F0
001C01E0
003803C0
00700780
00E00F00
01C01E00
03803C00
07007800
0F00F800
1E01F000
3C03E010
3C07E020
781DC060
783BC040
FDE3C080
FFC3C100
FF83C600
FE03C800
7803F000
0001C000
ENDCHAR
STARTCHAR 00E6
ENCODING 230
SWIDTH 615 0
DWIDTH 32 0
BBX 38 24 0 -2
BITMAP
000007F7F8
0000383FFC
0000E07038
0003806018
000E00C000
001C01C000
0038018000
0070018000
00E0018000
01C000FF80
03803DE080
07007F7B00
0F00FE1E00
1E01FC0000
3C03F80010
3C06F00020
781CF00040
7839F00080
FDF1F00100
FFC1F00200
FF81F81C00
FE00FFF800
78007FE000
00001E0000
ENDCHAR
STARTCHAR 00E7
ENCODING 231
SWIDTH 346 0
DWIDTH 18 0
BBX 24 30 0 -10
BITMAP
00003E
0001FF
000707
000C07
003807
006006
00C00C
01CF38
038FE0
070200
0E0000
0E0000
1C0000
3C0000
3C0008
780010
780030
780060
7800C0
7C0180
7E0600
7FFC00
3FF000
0F0000
0C0000
060000
070000
060000
8C0000
F80000
ENDCHAR
STARTCHAR 00E8
ENCODING 232
SWIDTH 500 0
DWIDTH 26 0
BBX 23 33 0 -3
BITMAP
00C000
01E000
01F000
00FC00
003E00
000780
0000C0
000000
000000
0001FC
000FFE
00180E
00300C
006000
006000
00E000
00E000
006000
007FC0
00F040
01FDC0
070F00
0E0000
1C0008
3C0010
780020
780060
F800C0
FC0180
7E0600
7FFC00
3FF000
0F0000
ENDCHAR
STARTCHAR 00E9
ENCODING 233
SWIDTH -557 0
DWIDTH -29 0
BBX 33 33 -10 -2
BITMAP
00C0000000
01E0000000
03C0000000
0F80000000
1E00000000
7000000000
C000000000
0000000000
0000000000
0000007F00
000003FF80
0000060380
00000C0300
0000180000
0000180000
0000380000
0000380000
0000180000
00001FF000
00003C1000
00007F7000
0001C3C000
0003800000
0007000200
000F000400
001E000800
001E001800
003E003000
003F006000
001F818000
001FFF0000
000FFC0000
0003C00000
ENDCHAR
STARTCHAR 00EA
ENCODING 234
SWIDTH 500 0
DWIDTH 26 0
BBX 23 33 0 -2
BITMAP
000038
0000F8
0001F8
0007F8
001F18
00781C
00C00C
000004
000006
0001FC
000FFE
00180E
00300C
006000
006000
00E000
00E000
006000
007FC0
00F040
01FDC0
070F00
0E0000
1C0008
3C0010
780020
780060
F800C0
FC0180
7E0600
7FFC00
3FF000
0F0000
ENDCHAR
STARTCHAR 00EB
ENCODING 235
SWIDTH -480 0
DWIDTH -25 0
BBX 35 33 -12 -2
BITMAP
3C1C000000
7E7E000000
FE7E000000
FE7E000000
FC7E000000
787C000000
0000000000
0000000000
0000000000
0000001FC0
000000FFE0
00000180E0
00000300C0
0000060000
0000060000
00000E0000
00000E0000
0000060000
000007FC00
00000F0400
00001FDC00
000070F000
0000E00000
0001C00080
0003C00100
0007800200
0007800600
000F800C00
000FC01800
0007E06000
0007FFC000
0003FF0000
0000F00000
ENDCHAR
STARTCHAR 00EC
ENCODING 236
SWIDTH 500 0
DWIDTH 26 0
BBX 16 32 1 -2
BITMAP
0380
07C0
07E0
01F0
007C
000F
0001
0000
0000
0000
000E
003E
003C
0078
00F0
01E0
03E0
03C0
0780
0F80
0F00
1E00
1E02
3C04
7C08
7818
7810
F860
F8C0
F900
FE00
7800
ENDCHAR
STARTCHAR 00ED
ENCODING 237
SWIDTH 211 0
DWIDTH 11 0
BBX 25 32 1 -2
BITMAP
00000300
00000780
00000F80
00003E00
00007800
0001C000
00020000
00000000
00000000
00000000
000E0000
003E0000
003C0000
00780000
00F00000
01E00000
03E00000
03C00000
07800000
0F800000
0F000000
1E000000
1E020000
3C040000
7C080000
78180000
78100000
F8600000
F8C00000
F9000000
FE000000
78000000
ENDCHAR
STARTCHAR 00EE
ENCODING 238
SWIDTH 500 0
DWIDTH 26 0
BBX 21 33 1 -3
BITMAP
000040
0001E0
0003E0
000FE0
003E60
00F070
038030
000010
000018
000000
000000
000E00
003E00
003C00
007800
00F000
01E000
03E000
03C000
078000
0F8000
0F0000
1E0000
1E0200
3C0400
7C0800
781800
781000
F86000
F8C000
F90000
FE0000
780000
ENDCHAR
STARTCHAR 00EF
ENCODING 239
SWIDTH -480 0
DWIDTH -25 0
BBX 28 33 -12 -2
BITMAP
3C3C0000
7C7E0000
FCFE0000
FCFE0000
FCFC0000
F8F80000
00200000
00000000
00000000
00000000
00000000
00000070
000001F0
000001E0
000003C0
00000780
00000F00
00001F00
00001E00
00003C00
00007C00
00007800
0000F000
0000F010
0001E020
0003E040
0003C0C0
0003C080
0007C300
0007C600
0007C800
0007F000
0003C000
ENDCHAR
STARTCHAR 00F0
ENCODING 240
SWIDTH 403 0
DWIDTH 21 0
BBX 35 45 1 -2
BITMAP
00003E0000
000047C000
000001E000
000000F000
0000007000
0000007800
0000003800
0000003800
0000003C00
0000003C00
0000003C20
0000003DE0
0000003FC0
000001FE00
00001FF800
0000003800
0000007800
0000007800
0000007000
0000007000
0000007000
000000E000
000000E000
000001C000
000071C000
0007F98000
001C1B8000
0030130000
00E0070000
01C0060000
03800E0000
07800C0000
0F00180000
0E00300000
1E00700000
3C00600000
3C00C00000
7801800000
7807000000
780E000000
FC7C000000
FFF8000000
7FE0000000
7F80000000
1800000000
ENDCHAR
STARTCHAR 00F1
ENCODING 241
SWIDTH 500 0
DWIDTH 26 0
BBX 29 30 -1 -3
BITMAP
00000080
001FFF80
003FFF00
00007E00
00000000
00000000
00000000
00000038
000380F0
000781E0
000707C0
000F0F80
001E1700
003C2600
0038CE00
00799C00
00F33800
01E67800
01EC7000
03D8F000
07B1E010
0FE1E020
0FC3C040
1F83C080
3E078100
7C078200
78078400
F807D800
E007E000
00038000
ENDCHAR
STARTCHAR 00F2
ENCODING 242
SWIDTH 500 0
DWIDTH 26 0
BBX 26 33 0 -3
BITMAP
00300000
00780000
007C0000
007E0000
000F8000
0003C000
00003000
00000000
00000000
000007C0
00007FC0
0001C0C0
00070E00
000E3F00
003C6700
0070C700
00E1C700
01C18E00
03C38E00
07831C00
0F071800
1E073800
1E077000
3C07E000
3C07C100
78078600
78070C00
F807F000
F81C0000
FC700000
FFC00000
7F000000
30000000
ENDCHAR
STARTCHAR 00F3
ENCODING 243
SWIDTH -557 0
DWIDTH -29 0
BBX 36 33 -10 -2
BITMAP
0040000000
00E0000000
03E0000000
07C0000000
1E00000000
3800000000
C000000000
0000000000
0000000000
00000001F0
0000001FF0
0000007030
000001C380
0000038FC0
00000F19C0
00001C31C0
00003871C0
0000706380
0000F0E380
0001E0C700
0003C1C600
000781CE00
000781DC00
000F01F800
000F01F040
001E01E180
001E01C300
003E01FC00
003E070000
003F1C0000
003FF00000
001FC00000
000C000000
ENDCHAR
STARTCHAR 00F4
ENCODING 244
SWIDTH 500 0
DWIDTH 26 0
BBX 26 33 0 -3
BITMAP
00001C00
00003C00
0000FC00
0003FC00
000F8E00
001C0600
00600600
00000200
00000300
000007C0
00007FC0
0001C0C0
00070E00
000E3F00
003C6700
0070C700
00E1C700
01C18E00
03C38E00
07831C00
0F071800
1E073800
1E077000
3C07E000
3C07C100
78078600
78070C00
F807F000
F81C0000
FC700000
FFC00000
7F000000
30000000
ENDCHAR
STARTCHAR 00F5
ENCODING 245
SWIDTH 500 0
DWIDTH 26 0
BBX 26 30 0 -3
BITMAP
00040100
003FFF00
007FFE00
00007C00
00000000
00000000
000007C0
00007FC0
0001C0C0
00070E00
000E3F00
003C6700
0070C700
00E1C700
01C18E00
03C38E00
07831C00
0F071800
1E073800
1E077000
3C07E000
3C07C100
78078600
78070C00
F807F000
F81C0000
FC700000
FFC00000
7F000000
30000000
ENDCHAR
STARTCHAR 00F6
ENCODING 246
SWIDTH -480 0
DWIDTH -25 0
BBX 37 33 -11 -2
BITMAP
3C1C000000
7E7E000000
FE7E000000
FEFE000000
FCFE000000
787C000000
2000000000
0000000000
0000000000
00000000F8
0000000FF8
0000003818
000000E1C0
000001C7E0
0000078CE0
00000E18E0
00001C38E0
00003831C0
00007871C0
0000F06380
0001E0E300
0003C0E700
0003C0EE00
000780FC00
000780F820
000F00F0C0
000F00E180
001F00FE00
001F038000
001F8E0000
001FF80000
000FE00000
0006000000
ENDCHAR
STARTCHAR 00F7
ENCODING 247
SWIDTH 500 0
DWIDTH 26 0
BBX 22 21 5 6
BITMAP
000700
001F80
003F80
003F80
003F80
003F80
001F00
000000
000000
7FFFFC
FFFFFC
000000
000000
008000
03E000
07E000
0FF000
0FE000
0FE000
0FC000
070000
ENDCHAR
STARTCHAR 00F8
ENCODING 248
SWIDTH 403 0
DWIDTH 21 0
BBX 26 33 0 -7
BITMAP
00000300
00000600
00000600
00000C00
00000FC0
00007FC0
0001F0C0
00072E00
000E7F00
003CE700
0070C700
00E1C700
01C18E00
03C38E00
07871C00
0F071800
1E0F3800
1E1F7000
3C17E000
3C37C100
78678600
78670C00
F8C7F000
F99C0000
FDF00000
FFC00000
7F000000
3E000000
0C000000
08000000
18000000
30000000
20000000
ENDCHAR
STARTCHAR 00F9
ENCODING 249
SWIDTH 500 0
DWIDTH 26 0
BBX 28 33 0 -3
BITMAP
00300000
00700000
00FC0000
007E0000
001F0000
0003C000
00006000
00000000
00000000
00000000
00070070
000F00E0
001E01C0
003C0380
00780700
00F00E00
00E01E00
01C03C00
03C03800
07807000
0700F000
0F01E000
1E03C000
3C07C000
3C0F8040
781F8080
78378100
F8EF0200
FF8F0400
FF0F0800
FE0F3000
F80FC000
00070000
ENDCHAR
STARTCHAR 00FA
ENCODING 250
SWIDTH -557 0
DWIDTH -29 0
BBX 38 33 -10 -2
BITMAP
0060000000
00E0000000
03E0000000
07C0000000
1F00000000
3800000000
C000000000
0000000000
0000000000
0000000000
000001C01C
000003C038
0000078070
00000F00E0
00001E01C0
00003C0380
0000380780
0000700F00
0000F00E00
0001E01C00
0001C03C00
0003C07800
000780F000
000F01F000
000F03E010
001E07E020
001E0DE040
003E3BC080
003FE3C100
003FC3C200
003F83CC00
003E03F000
000001C000
ENDCHAR
STARTCHAR 00FB
ENCODING 251
SWIDTH 500 0
DWIDTH 26 0
BBX 28 33 0 -2
BITMAP
00003800
00007C00
0000FC00
0003FC00
000F8C00
003C0E00
00600600
00000200
00000300
00000000
00070070
000F00E0
001E01C0
003C0380
00780700
00F00E00
00E01E00
01C03C00
03C03800
07807000
0700F000
0F01E000
1E03C000
3C07C000
3C0F8040
781F8080
78378100
F8EF0200
FF8F0400
FF0F0800
FE0F3000
F80FC000
00070000
ENDCHAR
STARTCHAR 00FC
ENCODING 252
SWIDTH -480 0
DWIDTH -25 0
BBX 39 33 -11 -2
BITMAP
3C3C000000
7E7E000000
FE7E000000
FEFE000000
FCFE000000
F87C000000
2000000000
0000000000
0000000000
0000000000
000000E00E
000001E01C
000003C038
0000078070
00000F00E0
00001E01C0
00001C03C0
0000380780
0000780700
0000F00E00
0000E01E00
0001E03C00
0003C07800
000780F800
000781F008
000F03F010
000F06F020
001F1DE040
001FF1E080
001FE1E100
001FC1E600
001F01F800
000000E000
ENDCHAR
STARTCHAR 00FD
ENCODING 253
SWIDTH -557 0
DWIDTH -29 0
BBX 36 43 -9 -14
BITMAP
00C0000000
01E0000000
03C0000000
0780000000
1E00000000
7800000000
C000000000
0000000000
0000000000
0000000000
0000000000
0000038070
00000781F0
00000F01E0
00001E03C0
00003C07C0
0000380F80
0000781F00
0000F03F00
0001E07E00
0001C0FC00
0003C1FC00
000783F800
000F06F000
000F0DF000
001E1BE000
001C23C000
003C478000
003F8F8000
007F0F0000
007C1E0000
00703C0000
0000780000
0000F00000
0001E00000
0003C00000
0007800000
000F000000
001E000000
003C000000
0078000000
01E0000000
0F80000000
ENDCHAR
STARTCHAR 00FE
ENCODING 254
SWIDTH 423 0
DWIDTH 22 0
BBX 37 45 -10 -12
BITMAP
00000000F0
00000001E0
00000003C0
0000000380
0000000780
0000000F00
0000000E00
0000001E00
0000003C00
0000007800
0000007800
000000F000
000001E000
000001C000
000003C0F0
00000783F8
00000F0FF0
00000F1870
00001E6070
00003CC0F0
00003980E0
00007A00C0
0000F401C0
0001E80380
0001F00300
0003E00610
0007C00E20
0007801840
000F003080
001E00E300
003EC38600
003DFE3800
0078FFE000
00F83C0000
01F0000000
01E0000000
03E0000000
07C0000000
0F80000000
0F80000000
1F00000000
3E00000000
7E00000000
7C00000000
F800000000
ENDCHAR
STARTCHAR 00FF
ENCODING 255
SWIDTH -480 0
DWIDTH -25 0
BBX 38 43 -11 -14
BITMAP
181C000000
7E3E000000
7E7E000000
FEFE000000
FCFE000000
FC7C000000
7038000000
0000000000
0000000000
0000000000
0000000000
000000E01C
000001E07C
000003C078
00000780F0
00000F01F0
00000E03E0
00001E07C0
00003C0FC0
0000781F80
0000703F00
0000F07F00
0001E0FE00
0003C1BC00
0003C37C00
000786F800
000708F000
000F11E000
000FE3E000
001FC3C000
001F078000
001C0F0000
00001E0000
00003C0000
0000780000
0000F00000
0001E00000
0003C00000
0007800000
000F000000
001E000000
0078000000
03E0000000
ENDCHAR
STARTCHAR 0131
ENCODING 305
SWIDTH 211 0
DWIDTH 11 0
BBX 15 22 1 -2
BITMAP
000E
003E
003C
0078
00F0
01E0
03E0
03C0
0780
0F80
0F00
1E00
1E02
3C04
7C08
7818
7810
F860
F8C0
F900
FE00
7800
ENDCHAR
STARTCHAR 0141
ENCODING 321
SWIDTH 500 0
DWIDTH 26 0
BBX 64 54 -20 -7
BITMAP
0000000000000FF8
000000000000303C
000000000000C01E
000000000001800E
0000000000070006
00000000000E0006
00000000001C0007
0000000000180007
0000000000380007
0000000000700006
0000000000E00006
0000000000E00006
0000000001C00006
0000000003C00006
000000000380000C
000000000780000C
000000000700000C
000000000F000018
000000001E000018
000000001E000010
000000003C000030
000000003C000020
0000000078000060
00000000780000C0
00000000F0000080
00000000F0000180
00000001E0000300
00000001E0000200
00000003C0000400
00000003C0000800
0000000783E01800
00000007FFC03000
0000001FFE004000
0000FFFF80018000
0001FE1E00070000
0000001E0E3C0000
0000003C0FF80000
000000780FC00000
0000007800000000
000000F000000000
000001F000000000
000001E000000000
000003C000000000
0000078000000000
00000F8000100000
0FFC1F0000300000
3FFFFE0000E00000
E00FFFFC1FE00000
C000FFFFFFC00000
8001FFFFFF000000
C007E07FFC000000
787F800000000000
3FFE000000000000
0FF0000000000000
ENDCHAR
STARTCHAR 0142
ENCODING 322
SWIDTH 230 0
DWIDTH 12 0
BBX 37 48 2 -3
BITMAP
0000000038
00000000F8
00000001F8
0000000398
0000000618
0000000C30
0000001830
0000003060
00000060C0
000000C180
0000018180
0000038300
0000070600
00000E0C00
00001C1800
0000383000
0000782000
0000706000
0000E0C000
0001C18000
0003830000
0007860000
000F080000
000E100000
001E200000
003C400000
0078800000
0079000000
00F2000000
01EC800000
01FB800000
03FF000000
07FC000000
FFC0000000
7F00000000
1F00000000
1E00000000
3E00000000
3C02000000
7C04000000
780C000000
F808000000
F810000000
F020000000
F0C0000000
F900000000
FE00000000
3800000000
ENDCHAR
STARTCHAR 0152
ENCODING 338
SWIDTH 980 0
DWIDTH 51 0
BBX 75 73 -1 -27
BITMAP
00000000008000000000
000000003FF000000000
00000001FFF000000000
00000007E1E000000000
0000001F00E000008000
0000007C0080007FFF00
000000F00F0003FFFFC0
000003E03F000E001FE0
000007806380380007E0
00000F00C380E00003E0
00001E018381800001C0
00003C03038300000080
00007803038600000000
0000F006038C00000000
0001E004039800000000
0003C00C073000000000
0007C008076000000000
000F8018074000000000
000F00180FC000000000
001E00100F8000000000
003E00301F8000000000
003C00301F8000000000
007800201F0000000000
00F800603F0FFE000000
00F000603B3E0F000000
01E000607BE00F000000
03E0006077801E000000
03C00040FFC07C000000
07C00040FCFFF0000000
07800041F07FC0000000
0F800043E00000000000
0F000043C00000000000
1F000067C000F8000000
1E00006780039C000000
1E00006F00061C000000
3C00007E00181C000000
3C00003E00301C000000
3C00003C006038000000
7800007C004038000000
780000FC008070000000
780000FF0100F0000000
780001F90201E0000000
700003F80603C0000000
700007F0040380000000
F0000FF0080F00000000
70001FF8181E00000000
70003DF8103C00000000
700078FC20F000000000
7000E0FE67E000000000
3803C07FFF8000000000
3C07001FFC0000000000
1FFC0000800000000000
03C00001800000000000
00000001000000000000
00000003000000000000
00000003000000000000
00000006000000000000
00000006000000000000
0000000E000000000000
0000000C000000000000
0000001C000000000000
0000001C000000000000
0000001C000000000000
0000003C000000000000
0000003C000000000000
0000003C000000000000
0000003C000000000000
0000007C000000000000
0000007C000000000000
0000007C000000000000
0000007E000000000000
0000003E000000000000
0000003E000000000000
ENDCHAR
STARTCHAR 0153
ENCODING 339
SWIDTH 596 0
DWIDTH 31 0
BBX 37 24 0 -2
BITMAP
000007C7F0
00007FFFF8
0001C0E070
00070FC030
000E3F8000
003C678000
0070C70000
00E1C70000
01C18F0000
03C38FFF00
07831FC100
0F071EF600
1E073C3C00
1E07780000
3C07F00020
3C07F00040
7807E00080
7807E00100
F807E00200
F81FE00400
FC73F03800
FFC1FFF000
7F00FFC000
30003C0000
ENDCHAR
STARTCHAR 0160
ENCODING 352
SWIDTH 500 0
DWIDTH 26 0
BBX 51 54 -3 -6
BITMAP
0000000003FF00
000000000FFF80
000000003807C0
000000007003C0
00000000E001E0
00000001C000E0
00000003C000E0
00000003C000E0
000010038000C0
00000807C000C0
00000C07C001C0
00000C07C00180
00000E1FC18300
000007FBC1FE00
000007E3C1F800
000007C3E00000
00000783E00000
00000003E00000
00000003E00000
00000001E00000
00000001F00000
00000001F00000
00000001F00000
00000001F00000
00003FE1F00000
0001FFF8F80000
0007FFF8F80000
001F007CF80000
007C001CF80000
00F0001CF80000
01C0000CF80000
0380000CF80000
0700000CF80000
0E00000CF80000
0C000018F80000
18000018F80000
18080030F80000
30180020F80000
30180060F00000
601800C0F00000
601C0101F00000
401E0E01E00000
400FF803E00000
C0018003C00000
C0000007800000
40000007800000
4000000F000000
6000001E000000
60000078000000
300000F0000000
1C0003C0000000
0F001F00000000
07FFFC00000000
00FFC000000000
ENDCHAR
STARTCHAR 0161
ENCODING 353
SWIDTH 500 0
DWIDTH 26 0
BBX 22 34 1 -3
BITMAP
018000
008000
00C004
006038
0061E0
0077C0
007F00
007C00
007B80
000780
000980
000900
000900
000A00
000C00
000800
000C00
001C00
002C00
004C00
008C00
010C00
021E00
041E00
3C1E00
781E08
703E10
603C20
E07C60
C0FC80
C1F900
43F600
3FF800
1FE000
ENDCHAR
STARTCHAR 0178
ENCODING 376
SWIDTH -480 0
DWIDTH -25 0
BBX 43 80 -7 -33
BITMAP
000000038000
000C001F0000
000F03F30000
000FFF860000
0000F00E0000
0000000C0000
0000001C0000
000000380000
000000300000
000000700000
000000600000
3C3C00C00000
7E7E01C00060
FEFE018001E0
FCFE038003E0
FCFC070003C0
F878060007C0
00000E000780
00001C000F80
000018001F00
000038001F00
000070003E00
000070007C00
0000E0007C00
0001C000F800
0001C001F800
00038003F000
00078003E000
00070006E000
000F000DC000
000E001DC000
001C001B8000
003C00338000
003800670000
007800E70000
007000CE0000
00F0019C0000
01F0031C0000
01E006380000
03E00E380000
03C01C700000
07C038F00000
07C070E00000
07C0E1C00000
0FE3C1C00000
0FFF83800000
0FFF07800000
0FFC07000000
0FF80F000000
07E00E000000
00001E000000
00003C000000
000038000000
000078000000
000070000000
0000F0000000
0001E0000000
0001E0000000
0003C0000000
0007C0000000
000780000000
000F00000000
000F00000000
001E00000000
003E00000000
003C00000000
007C00000000
00F800000000
00F800000000
01F000000000
03E000000000
03E000000000
07C000000000
07C000000000
0F8000000000
1F8000000000
1F0000000000
3F0000000000
3E0000000000
3C0000000000
ENDCHAR
STARTCHAR 017D
ENCODING 381
SWIDTH 500 0
DWIDTH 26 0
BBX 54 66 -8 -17
BITMAP
00007000000000
0000FC00000000
0001FF00000000
0001FFF0000000
0000FFFFFFF000
00000FFFFFF000
0000000000E000
0000000000C000
0000000001C000
00000000018000
00000400030000
00000600060000
000006006C0000
00000303D80000
0000039F300000
000003FFF80000
000003FFFF0000
000003F1BF8000
000007C307C000
00001C0603E000
0000300801E3FC
0000603001FFFC
0000C06000FFF8
000181C003F800
000187000FF000
0001FC003EF000
0000F000F8F000
00000003C0F000
0000000F00F000
0000001E01E000
0000007801E000
000000E001E000
000001C003E000
0000078003C000
00000E0003C000
00001C00078000
00003800078000
000060000F0000
0000C0000F0000
000380001E0000
000700001E0000
000E00003C0000
001C00007C0000
00380000780000
00300000F00000
00600001F00000
00C00001E00000
01800003C00000
03000007800000
0700000F000000
0600001F000000
0C00003E000000
1C00007C000000
18000078000000
300000F0000000
300003E0000000
600007C0000000
60000F80000000
60001E00000000
E0003C00000000
C000F800000000
E003E000000000
E00F8000000000
783E0000000000
3FF80000000000
07800000000000
ENDCHAR
STARTCHAR 017E
ENCODING 382
SWIDTH 500 0
DWIDTH 26 0
BBX 31 46 -7 -15
BITMAP
0000C000
00004000
00006002
0000701E
000030F8
00003BE0
00003F80
00003E00
00007E00
00008400
00008400
0000C800
00006800
00003C0E
00001FFE
000027FE
000041FC
00004038
00008070
00013EE0
00014780
0002E7C0
00047BFE
000803CE
00100FE4
001023E0
0000C3C0
000303C0
000607C0
000807C0
00300F80
00600F80
00801F00
01001F00
02003E00
04007C00
08007800
1000F800
3001F000
2003C000
40078000
400F0000
C03E0000
C0F80000
FFE00000
7E000000
ENDCHAR
STARTCHAR 0192
ENCODING 402
SWIDTH 403 0
DWIDTH 21 0
BBX 37 44 -1 -3
BITMAP
0000000018
0000000038
000C000070
000C0001E0
000E0007C0
000F807B80
0007FF8700
0000000E00
0000001C00
0000003800
0000007000
000000E000
000001E000
000003C000
0000038000
0000070000
00000E0000
00001E0000
00003C0000
0000380000
0000700000
0000F00000
0001E07C00
0003C3FC00
0003863800
0007187000
000F60F000
001EC1C000
003F838000
003E070000
007C1C0000
00F8700000
01F1E00000
03E3C00000
07C3C02000
0783804000
0F8780C000
1F07818000
3E07810000
7C07820000
F8078C0000
F007900000
0007E00000
0003800000
ENDCHAR
STARTCHAR 02C6
ENCODING 710
SWIDTH 500 0
DWIDTH 26 0
BBX 15 9 6 21
BITMAP
0038
0078
01FC
03FC
0F1C
3C0C
E004
0006
0002
ENDCHAR
STARTCHAR 02C7
ENCODING 711
SWIDTH 500 0
DWIDTH 26 0
BBX 15 9 6 22
BITMAP
C000
4000
600E
7078
73E0
3F80
3E00
3C00
1800
ENDCHAR
STARTCHAR 02D8
ENCODING 728
SWIDTH 500 0
DWIDTH 26 0
BBX 15 9 6 22
BITMAP
8000
C000
C006
E00C
F030
7FE0
7FC0
3F00
1C00
ENDCHAR
STARTCHAR 02D9
ENCODING 729
SWIDTH 500 0
DWIDTH 26 0
BBX 8 7 15 22
BITMAP
1C
3E
7F
FF
FE
FE
7C
ENDCHAR
STARTCHAR 02DA
ENCODING 730
SWIDTH 500 0
DWIDTH 26 0
BBX 8 7 9 23
BITMAP
3E
63
C1
81
83
C6
7C
ENDCHAR
STARTCHAR 02DC
ENCODING 732
SWIDTH 500 0
DWIDTH 26 0
BBX 15 4 6 23
BITMAP
1E06
7FFC
DFF8
00F0
ENDCHAR
STARTCHAR 03C0
ENCODING 960
SWIDTH 500 0
DWIDTH 26 0
BBX 57 41 2 -3
BITMAP
0000000600300000
0000001F00F80000
0000003F01F00000
0000007603B00000
000000C606200000
0000018C1C600000
0000070838400000
00000E1070800000
00001C30E1800000
00003861C3000000
0000304386000780
000060830401FF80
0000E10708FFFF00
0001C20EFFFFC000
000385FFFFC00000
01FFFFFFC0000000
07FFFC7080000000
001E20F100000000
001C40E200000000
003881C400000000
007903C800000000
00F2079000000000
00E40F2000000000
01E80FC000000000
03F01F0000000000
07C03E0000000000
07803C0000000000
0F00780000000000
1F00F80000000000
1E00F00000000000
3E01F00000000000
3C01E00000000000
7C03E01000000000
7807C02000000000
780FC04000000000
F817C08000000000
F827C10000000000
F847C20000000000
F987CC0000000000
FE07F00000000000
3801C00000000000
ENDCHAR
STARTCHAR 2013
ENCODING 8211
SWIDTH 461 0
DWIDTH 24 0
BBX 20 2 6 8
BITMAP
FFFFF0
FFFFE0
ENDCHAR
STARTCHAR 2014
ENCODING 8212
SWIDTH 653 0
DWIDTH 34 0
BBX 30 2 6 8
BITMAP
FFFFFFFC
FFFFFFF8
ENDCHAR
STARTCHAR 2018
ENCODING 8216
SWIDTH 500 0
DWIDTH 26 0
BBX 13 13 20 29
BITMAP
0038
01C0
0300
0E00
1C00
3C00
3C00
7C00
FC00
FC00
FC00
F800
2000
ENDCHAR
STARTCHAR 2019
ENCODING 8217
SWIDTH 288 0
DWIDTH 15 0
BBX 13 13 17 29
BITMAP
00F8
01F8
01F8
01F8
01F0
00F0
01E0
01C0
0380
0700
0C00
F000
8000
ENDCHAR
STARTCHAR 201A
ENCODING 8218
SWIDTH 346 0
DWIDTH 18 0
BBX 13 13 1 -6
BITMAP
0078
00F8
01F8
01F8
01F8
00F0
01E0
01C0
0380
0700
0E00
7800
C000
ENDCHAR
STARTCHAR 201C
ENCODING 8220
SWIDTH 653 0
DWIDTH 34 0
BBX 21 13 20 29
BITMAP
003878
01C1C0
030300
0E0E00
1C1C00
3C3C00
3C7C00
7C7800
FCFC00
FCFC00
FCFC00
F8F800
202000
ENDCHAR
STARTCHAR 201D
ENCODING 8221
SWIDTH 442 0
DWIDTH 23 0
BBX 21 13 17 29
BITMAP
00F8F8
01F9F8
01F9F8
01F9F8
01F1F0
00F1F0
01E1E0
01C1C0
038380
070600
0C1C00
F0F000
808000
ENDCHAR
STARTCHAR 201E
ENCODING 8222
SWIDTH 500 0
DWIDTH 26 0
BBX 21 13 1 -6
BITMAP
0078F8
00F9F8
01F9F8
01F9F8
01F9F0
00F1F0
01E1E0
01C1C0
038380
070700
0E0C00
787000
C0C000
ENDCHAR
STARTCHAR 2021
ENCODING 8225
SWIDTH 653 0
DWIDTH 34 0
BBX 64 58 -4 -13
BITMAP
00000000001E001E
00000000007F007F
0000000001C301C7
0000000003070707
000000000E060E06
000000001C06180E
00000000300C300C
00000000601C601C
00000000C018C038
0000000180318070
00000003006300E0
0000000600E601C0
0000000E01CC0380
0000001C01980700
0000003803380E00
0000007006701C00
000000E00CE07000
000001C019C0E000
000001C03381C000
00000380E7870000
00000701C71E0000
00000E030E380000
00001E061CE00000
00003C1C3B800000
000038307E000000
000070E078000000
0000F383E0000000
0001EE1FE0000000
0001FBFBC0000000
003FFF83FFF00000
003FF007FFE00000
000FE00FE0000000
000FF00FF0000000
001E781CF0000000
003C383C78000000
0038387838000000
0078387838000000
00F018F038000000
00F018E038000000
01E019E030000000
01C033C030000000
03C0338030000000
0780378020000000
07806F0060000000
0F006F0040000000
0E00DE00C0000000
1E009E0180000000
1C01BC0180000000
3C033C0300000000
3802780600000000
7806780400000000
780C700800000000
7018F01800000000
F030F02000000000
F060F0C000000000
F180F18000000000
FF00FE0000000000
7800780000000000
ENDCHAR
STARTCHAR 2022
ENCODING 8226
SWIDTH 403 0
DWIDTH 21 0
BBX 10 10 9 4
BITMAP
1F00
3F80
7FC0
FFC0
FFC0
FF80
FF80
FF00
FE00
3C00
ENDCHAR
STARTCHAR 2026
ENCODING 8230
SWIDTH 730 0
DWIDTH 38 0
BBX 28 8 5 -2
BITMAP
1C0700E0
7E0F83F0
7F1FC7F0
FF3FC7F0
FE3FC7F0
FE3F87E0
7C1F07C0
00000100
ENDCHAR
STARTCHAR 2030
ENCODING 8240
SWIDTH 1384 0
DWIDTH 72 0
BBX 66 47 9 -4
BITMAP
000000000800000000
000000001800000000
0001FC003000000000
00060E003000000000
000C0F006000000000
001007004000000000
00200780C000000000
004007818000000000
00C007810000000000
018007830000000000
030007060000000000
070007060000000000
0600070C0000000000
0E0007080000000000
1C000E180000000000
1C000E300000000000
38000E200000000000
38001C603F8000FE00
78001CC0C3C0030700
7000188101E0040780
7000398600E0080380
F000310C00E0100380
F000631800E02003C0
F000C63000E04003C0
F000C43000E0C00380
F0018C6000E1800380
F00318C000E3800380
F00611C000E3000380
7808318001C6000380
7C70638001CE000700
3FC0630001CE000700
0000C700039C000700
00008700039C000E00
00018E00033C000E00
00030E000738000C00
00021E000638001800
00061E000E78001800
000C1C000C78003000
00081C001878006000
00181C003078006000
00301C00207800C000
00301E004078018000
00601E008078030000
00C01E03007C040000
00C00F8C003E380000
018007F0001FE00000
010000000000000000
ENDCHAR
STARTCHAR 2039
ENCODING 8249
SWIDTH 461 0
DWIDTH 24 0
BBX 17 18 7 -1
BITMAP
000F80
001E00
007800
01E000
078000
0F0000
3C0000
700000
E00000
F00000
700000
700000
380000
380000
1C0000
1C0000
0E0000
060000
ENDCHAR
STARTCHAR 203A
ENCODING 8250
SWIDTH 442 0
DWIDTH 23 0
BBX 17 18 3 0
BITMAP
003800
003800
001C00
001E00
000E00
000F00
000700
000700
000380
000780
000F00
003C00
007000
01E000
078000
1E0000
780000
E00000
ENDCHAR
STARTCHAR 2044
ENCODING 8260
SWIDTH 250 0
DWIDTH 13 0
BBX 30 47 -6 -4
BITMAP
00000004
0000000C
0000000C
00000018
00000030
00000030
00000060
00000040
000000C0
00000180
00000100
00000300
00000200
00000600
00000C00
00000800
00001800
00003000
00002000
00006000
0000C000
0000C000
00018000
00010000
00030000
00060000
00040000
000C0000
00180000
00100000
00300000
00600000
00600000
00C00000
00800000
01800000
03000000
02000000
06000000
0C000000
0C000000
18000000
30000000
30000000
60000000
C0000000
C0000000
ENDCHAR
STARTCHAR 20AC
ENCODING 8364
SWIDTH 711 0
DWIDTH 37 0
BBX 44 46 4 -4
BITMAP
000000003F80
00000003FFF0
0000001C07F0
0000006001F0
0000018000F0
000007000060
00000C000000
000018000000
000070000000
0000E0000000
0001C0000000
000380000000
000780000000
000F00000000
000E00000000
001E00000000
003C00000000
007800000000
007800007000
00F0000FE000
00F007FFC000
01E7FFF00000
7FFFE0006000
3BC0000FE000
07C007FFC000
07C7FFF00000
FFFFE0000000
7F8000000000
0F8000000000
0F0000000000
1F0000000000
1F0000000000
1F0000000000
1F0000000000
1F0000000000
3F0000040000
3F0000080000
3F0000100000
1F0000200000
1F0000C00000
1F0001800000
1F8003000000
0FC00C000000
0FE038000000
07FFE0000000
01FF00000000
ENDCHAR
STARTCHAR 2126
ENCODING 8486
SWIDTH 250 0
DWIDTH 13 0
BBX 38 41 2 -2
BITMAP
0000000E00
0000001C00
0000003000
0000006000
000000C000
0000018000
0000030000
00000E0000
00000C001C
00001C03FC
0000387FF8
00007FFF00
03FFFFC000
03FFC00000
0003800000
0007800000
000F000000
000E000000
001C000000
003C000000
0078000000
00F0000000
00F0000000
01E0000000
03C0000000
07C0000000
0780000000
0F00000000
0F00000000
1E00000000
3E00000000
3C01000000
7C02000000
7804000000
7808000000
F810000000
F820000000
F840000000
F980000000
7E00000000
3800000000
ENDCHAR
STARTCHAR 2202
ENCODING 8706
SWIDTH 423 0
DWIDTH 22 0
BBX 31 36 -6 -15
BITMAP
00000078
000001FE
000003FE
0000061C
0000081C
00001038
00002038
00004070
000080E0
00017D80
00028F00
0005CF80
0008F7FC
001007FC
00201FC8
002047C0
000187C0
00020780
000C0780
00100F80
00200F80
00C01F00
01801F00
03003E00
06003C00
0C007C00
0800F800
1001F000
2001E000
6003C000
40078000
C00F0000
C03C0000
C0F80000
FFE00000
7E000000
ENDCHAR
STARTCHAR 2206
ENCODING 8710
SWIDTH 653 0
DWIDTH 34 0
BBX 71 56 -15 -11
BITMAP
000000000000007FF0
00000000000003C07C
0003FFFE00000E001E
003E000FF80018000E
00E000003FC060003E
0380000000FFC001FC
0F0000000007FFFFF0
1E00000000063FFF80
3C000000000C000000
780000000018000E00
78000000003000FF00
F8000000006003C300
F800000100C0070300
F800000181800C0200
F80000038300180600
FC0000078600700C00
7E00000F0C00E01800
3F00003C1800C03000
1FC000F03801C04000
07F80FC07003818000
01FFFE006007060000
00000000C00E380000
00000001801FE00000
000000038FFF000000
000000070FF8000000
0000000E0470000000
0000000C00F0080000
0000001C01E0FC0000
0000003801C3BC0000
00000070038C380000
000000E007B8700000
000000E00F60E00000
000001C01FC0E00000
000003801F01C00000
000007803E03800000
00000F007C07000000
00000E00F80F000000
00001C01F01E000000
00003C03E01C040000
00007803C03C080000
0000F0078078080000
0000F00F8070100000
0001E01F00F0200000
0003C03E00F0400000
0007C07C01F0800000
000F807801F3000000
001F000001FC000000
003F000000F0000000
007E00000000000000
007C00000000000000
00FC00000000000000
01F800000000000000
07F000000000000000
0FE000000000000000
0FE000000000000000
07C000000000000000
ENDCHAR
STARTCHAR 220F
ENCODING 8719
SWIDTH 230 0
DWIDTH 12 0
BBX 75 47 -12 -3
BITMAP
000FF800000000000000
00FFFFC0000000000000
03F001F8000000000000
0F80003E000000000000
1F00000F000000000000
3E000007800000000000
7C000001C01800000000
7C000001C07C00000000
7C000000C0FC00000000
F800000001D800000000
7C000000031800000000
7C000000063000000000
7C0000000C2000000000
3E000000384000000060
1F00000070C000001FE0
0FC0000061800007FFC0
07E00000C10003FFFC00
01FC0001C201FFFF0000
003FC00387FFFF000000
0007FFFFFFFC00000000
000001FE100000000000
0000001C200000000000
0000003C400000000000
00000078800000000000
00000071000000000000
000000E2000000000000
000001E4000000000000
000003C8000000000000
00000390000000000000
000007A0000000000000
00000FC0000000000000
00001F00000000000000
00001E00000000000000
00003C00000000000000
00003C00000000000000
00007800000000000000
0000F800000000000000
0000F004000000000000
0001F008000000000000
0001E010000000000000
0001E020000000000000
0003E040000000000000
0003E080000000000000
0003E100000000000000
0003E600000000000000
0003F800000000000000
0000E000000000000000
ENDCHAR
STARTCHAR 2211
ENCODING 8721
SWIDTH 423 0
DWIDTH 22 0
BBX 52 42 -14 -22
BITMAP
00000000780000
00000001FE0000
00000003FE0000
000000061C0000
000000081C0000
00000010380000
00000020380000
00000040700000
00000080E00000
0000017D800000
0000028F000000
000005DF800000
000008F3C00000
00001003C00000
00002003C00000
00002003C00000
00000007C00000
00000007800000
00000007800000
0000000F000000
0000000F000000
0000001E000000
0000001E000000
0000003C000000
000000FFFC0000
00001FF83FC000
0001E0F000F000
000F00E0003C00
003801C0000E00
00E003C0000700
01C00780000380
07000F000003C0
0E001E000001E0
1C0038000001E0
380070000001E0
7000E0000001E0
7003C0000001F0
F00700000003E0
E01E00000007E0
F0F80000000FE0
FFE00000000380
7F000000000000
ENDCHAR
STARTCHAR 2212
ENCODING 8722
SWIDTH 500 0
DWIDTH 26 0
BBX 22 2 5 15
BITMAP
7FFFFC
FFFFFC
ENDCHAR
STARTCHAR 221A
ENCODING 8730
SWIDTH 442 0
DWIDTH 23 0
BBX 37 44 -1 -4
BITMAP
0000000018
0000000038
000C000070
000C0001E0
000E0007C0
000F807B80
0007FF8700
0000000E00
0000001C00
0000003800
0000007000
000000E000
000001C000
000003C000
0000038000
0000070000
00000E0000
00001C0000
00003C0000
0000380000
0000700000
0000E00000
0001E01000
0003C1F800
0003877800
0007187000
000F70E000
001EC1C000
003F81C000
003E038000
007C070000
00F80E0000
01F01E0000
03E01C0000
07C0380800
0780780800
0F80F01000
1F00E02000
3E01E04000
7C01E08000
F803E10000
F003E60000
0003F80000
0001E00000
ENDCHAR
STARTCHAR 221E
ENCODING 8734
SWIDTH 730 0
DWIDTH 38 0
BBX 66 47 2 -2
BITMAP
000000000000000F80
000000000000007FC0
00000000000000E1C0
0000000000000381C0
000000000000060180
0000000000000C0180
000000060000180300
0000001F0000700700
0000003F0000E00600
000000760001C00C00
000000C60003801800
0000018C0003003000
000003080007006000
00000610000E00C000
00001C30001C038000
000038600038060000
0000304000701C0000
0000608000F0700000
0000E10000E1C00000
0001C20001DF000000
000384FF1FFC000000
00FFFFFF1FC0000000
07FFFC000F00000000
001E20000E00000000
001C40001E00000000
003880073C00000000
0079007FB800000000
00F201C1F800000000
00E403017000000000
01E80600F000000000
03F01C01E000000000
07C03801C000000000
07807803C000000000
0F00F0038000000000
1F00E0078000000000
1E01E0070000000000
3E03C00F0000000000
3C03C01F0000000000
7C07C03E0100000000
780780FE0200000000
780F81DC0400000000
F81FCFBC0800000000
F82FFE3C1000000000
F847FC3C2000000000
F987F03CC000000000
FE01803F0000000000
3800001C0000000000
ENDCHAR
STARTCHAR 222B
ENCODING 8747
SWIDTH 615 0
DWIDTH 32 0
BBX 55 58 2 -13
BITMAP
0000000000003C
000000000000FE
00000000000386
00000000000606
00000000000C0E
0000000000380C
0000000600601C
0000001F00C018
0000003F018030
00000076030070
000000C60700E0
0000018C0E00C0
000007081C0180
00000E10380300
00001C30700600
00003860E00C00
00003041C03800
00006081807000
0000E10380C000
0001C207038000
000385CE060000
01FFFFDC1C0000
07FFFF3C700000
001E2039C00000
001C407F000000
003880FC000000
007901E0000000
00F203C0000000
00E40380000000
01E807FFE00000
03F00FFFE00000
07C00FC0000000
07801FE0000000
0F003CF0000000
1F007870000000
1E007070000000
3E00F030000000
3C01E030000000
7C03E030000000
7807C030000000
78078060000000
F81F8060000000
F83F0060000000
F84F00C0000000
F89E00C0000000
FE1E0180000000
383C0180000000
003C0300000000
00780600000000
00780400000000
00F00C00000000
00F01800000000
00E03000000000
01E06000000000
01E0C000000000
01E30000000000
01FE0000000000
00F00000000000
ENDCHAR
STARTCHAR 2248
ENCODING 8776
SWIDTH 653 0
DWIDTH 34 0
BBX 71 56 -15 -11
BITMAP
000000000000007FF0
00000000000003C07C
0003FFFE00000E001E
003E000FF80018000E
00E000003FC060003E
0380000000FFC001FC
0F0000000007FFFFF0
1E00000000063FFF80
3C000000000C000000
780000000018000E00
78000000003000FF00
F8000000006003C300
F800000100C0070300
F800000181800C0200
F80000038300180600
FC0000078600700C00
7E00000F0C00E01800
3F00003C1800C03000
1FC000F03801C04000
07F80FC07003818000
01FFFE006007060000
00000000C00E380000
00000001801FE00000
000000038FFF000000
000000070FF8000000
0000000E0470000000
0000000C00F0080000
0000001C01E0FC0000
0000003801C3BC0000
00000070038C380000
000000E007B8700000
000000E00F60E00000
000001C01FC1E00000
000003801F01C00000
000007803E03800000
00000F007C07800000
00000E00F807000000
00001C01F00E000000
00003C03E01E000000
00007803C01C000000
0000F007803C000000
0000F00F8078000000
0001E01F0078000000
0003C03E00F0000000
0007C07C00F0000000
000F807801F0000000
001F000001E0000000
003F000001E0000000
007E000003E0000000
007C000003E0000000
00FC000003E0000000
01F8000003F0600000
07F0000003FF800000
0FE0000001FE000000
0FE000000000000000
07C000000000000000
ENDCHAR
STARTCHAR 2260
ENCODING 8800
SWIDTH 403 0
DWIDTH 21 0
BBX 26 24 0 -3
BITMAP
000007C0
00007FC0
0001C0C0
00070600
000E0F00
003C0700
00700700
00E00700
01C00E00
03C00E00
07801C00
0F005800
1E01F800
1E03F000
3C07E000
3C07C100
78078200
78070C00
F807B000
F81CC000
FC700000
FFC00000
7F000000
30000000
ENDCHAR
STARTCHAR 2264
ENCODING 8804
SWIDTH 692 0
DWIDTH 36 0
BBX 56 47 2 -3
BITMAP
0000000000007E
000000000001FF
00000000000703
00000000000E03
00000000001803
00000000007002
0000000600E006
0000001F01C00C
0000003F038008
00000076070018
000000C6060070
0000018C0E00C0
000003081C0180
00000E10380700
00000C30701C00
00001860F07000
00003041E3C000
00007081DF0000
0000E103F80000
0001C21FC00000
00039FFF000000
1FFFFF9E000000
1FFFD01C000000
001E203C000000
001C4078000000
003880F0080000
007900F0FC0000
00F201E3BC0000
00E403CE380000
01E80798700000
03F00760700000
07C00FC0E00000
07801F81C00000
0F003E03800000
1F007C07800000
1E00F807000000
3E00F80E000000
3C01F01C000000
7C03E03C040000
7807C038080000
780F8078100000
F81F00F0200000
F83E00F0400000
F87C00F0800000
F8F801F3000000
FE0000FC000000
380000F8000000
ENDCHAR
STARTCHAR 2265
ENCODING 8805
SWIDTH 480 0
DWIDTH 25 0
BBX 50 48 2 -3
BITMAP
000000000001C0
000000000007C0
00000000000FC0
00000000001CC0
000000000030C0
00000000006180
0000000000C180
00000006018300
0000001E030600
0000003E060C00
000000760C0C00
000000C41C1800
00000188383000
00000308706000
00000610E0C000
00000C21C18000
00001843C10000
00003083830000
00006107060000
0000E30E0C0000
0001C61C180000
00038CFC300000
00FFFFF8400000
07FFFFF0800000
001E60F1000000
001CC1E2000000
003983C4000000
007B03C8000000
00F40790000000
00E80F60000000
01F01FC0000000
03E01F00000000
07C03E00000000
07803C00000000
0F007800000000
1F00F800000000
1E00F000000000
3E01F000000000
3C01E010000000
7C03E020000000
7807C060000000
780FC040000000
F817C080000000
F8278100000000
F8478600000000
F987C800000000
FE07F000000000
3801C000000000
ENDCHAR
STARTCHAR F8FF
ENCODING 63743
SWIDTH 634 0
DWIDTH 33 0
BBX 32 39 0 -1
BITMAP
00381C00
001C3800
000E7000
0007E000
0003C000
00000000
00008000
001FFC00
00FFFF00
01F007C0
038001E0
0F0000F0
0E07E038
1C1FF838
383C3C1C
30380C0E
7070000E
60700006
60380007
E03C0003
C01F0003
C00FC003
C003F003
C000F803
C0003C03
E0001E03
60000E07
60000E06
70000E06
30600E0E
387C3C1C
1C3FF818
1E0FE038
0F000070
078001E0
01F007C0
00FFFF00
003FFC00
00018000
ENDCHAR
STARTCHAR FB00
ENCODING 64256
SWIDTH 653 0
DWIDTH 34 0
BBX 64 58 -4 -13
BITMAP
00000000001E001E
00000000007F007F
0000000001C301C7
0000000003070707
000000000E060E06
000000001C06180E
00000000300C300C
00000000601C601C
00000000C018C038
0000000180318070
00000003006300E0
0000000600E601C0
0000000E01CC0380
0000001C01980700
0000003803380E00
0000007006701C00
000000E00CE07000
000001C019C0E000
000001C03381C000
00000380E7870000
00000701C71E0000
00000E030E380000
00001E061CE00000
00003C1C3B800000
000038307E000000
000070E078000000
0000F383E0000000
0001EE1FE0000000
0001FBFBC0000000
003FFF83FFF00000
003FF007FFE00000
000FE00FE0000000
000FF00FF0000000
001E781CF0000000
003C383C78000000
0038387838000000
0078387838000000
00F018F038000000
00F018E038000000
01E019E030000000
01C033C030000000
03C0338030000000
0780378020000000
07806F0060000000
0F006F0040000000
0E00DE00C0000000
1E009E0180000000
1C01BC0180000000
3C033C0300000000
3802780600000000
7806780400000000
780C700800000000
7018F01800000000
F030F02000000000
F060F0C000000000
F180F18000000000
FF00FE0000000000
7800780000000000
ENDCHAR
STARTCHAR FB01
ENCODING 64257
SWIDTH 557 0
DWIDTH 29 0
BBX 48 58 -4 -13
BITMAP
00000000001E
00000000007F
0000000001C3
000000000306
000000000E06
000000001C0E
00000000300C
000000006018
00000000C038
000000018030
000000030060
0000000600C0
0000000E0180
0000001C0300
000000380600
000000700C00
000000E019E0
000001C033E0
000001C067F0
00000381C7E0
0000070307E0
00000E0607C0
00001C1C0100
00003C300000
000038E00000
000073803C00
0000FE007800
0001F800F000
0003E001E000
03FF8003E000
03FF8003C000
000FF0078000
000FF00F0000
001E181F0000
003E181E0000
003E183C0000
007E187C0000
00F719F80000
00F3D6F80800
01E0F8F01000
01C031F02000
03C021E04000
078061E08000
078061E10000
0F00C3E60000
0E00C1F80000
1E0181E00000
1C0100000000
3C0300000000
380600000000
780C00000000
780800000000
701000000000
F02000000000
F04000000000
F18000000000
FE0000000000
780000000000
ENDCHAR
STARTCHAR FB02
ENCODING 64258
SWIDTH 596 0
DWIDTH 31 0
BBX 62 59 -4 -14
BITMAP
0000000000000038
00000000001E007C
00000000007F00FC
0000000001C7039C
0000000003070718
000000000E060E18
000000001C061C30
00000000300C3860
00000000600C7060
00000000C018E0C0
000000018039C180
0000000300338300
0000000600670300
0000000E00CE0600
0000001C018E0C00
00000038039C1800
0000007007383000
000000E00E706000
000001C00CE0C000
000001C019E18000
0000038071C30000
00000700E3860000
00000E01878C0000
00001C030F180000
00003C061E300000
0000381C1C600000
000070303CC00000
0000F06079800000
0001E180F2000000
0001C700F4000000
00039C01E8000000
0007F003F0000000
001FC003E0000000
01FFF80780000000
00FFF80F80000000
003F0C0F00000000
003F0C1F00000000
007B0C1E00000000
00F38C3E01000000
00F18CFC02000000
01E0EBFC04000000
03C01C7808000000
03C0187810000000
078030F820000000
078030F840000000
0F0060F980000000
0E00407E00000000
1E00C03800000000
1C01800000000000
3C01000000000000
3803000000000000
7806000000000000
780C000000000000
F018000000000000
F030000000000000
F060000000000000
F180000000000000
FF00000000000000
7800000000000000
ENDCHAR
ENDFONT
